
<svg version="1.1" viewBox="0.0 0.0 960.0 720.0" fill="none" stroke="none" stroke-linecap="square" stroke-miterlimit="10" xmlns:xlink="http://www.w3.org/1999/xlink" xmlns="http://www.w3.org/2000/svg"><clipPath id="p.0"><path d="m0 0l960.0 0l0 720.0l-960.0 0l0 -720.0z" clip-rule="nonzero"/></clipPath><g clip-path="url(#p.0)"><path fill="#000000" fill-opacity="0.0" d="m0 0l960.0 0l0 720.0l-960.0 0z" fill-rule="evenodd"/><path fill="#000000" fill-opacity="0.0" d="m85.12336 113.01575l438.5512 0l0 42.015747l-438.5512 0z" fill-rule="evenodd"/><path fill="#ea9999" d="m50.761154 85.19948l391.0866 0l0 157.10236l-391.0866 0z" fill-rule="evenodd"/><path stroke="#000000" stroke-width="1.0" stroke-linejoin="round" stroke-linecap="butt" d="m50.761154 85.19948l391.0866 0l0 157.10236l-391.0866 0z" fill-rule="evenodd"/><path fill="#000000" fill-opacity="0.0" d="m91.66929 141.24934l286.3622 0l0 64.62993l-286.3622 0z" fill-rule="evenodd"/><path fill="#000000" d="m144.05986 176.13622q0 -2.546875 1.25 -4.9375q1.265625 -2.390625 3.5625 -3.640625q2.3125 -1.265625 5.15625 -1.265625q4.390625 0 7.1875 2.859375q2.8125 2.84375 2.8125 7.203125q0 4.390625 -2.84375 7.28125q-2.828125 2.890625 -7.125 2.890625q-2.65625 0 -5.078125 -1.203125q-2.40625 -1.203125 -3.671875 -3.515625q-1.25 -2.328125 -1.25 -5.671875zm5.25 0.28125q0 2.875 1.359375 4.40625q1.375 1.53125 3.375 1.53125q2.0 0 3.359375 -1.53125q1.359375 -1.53125 1.359375 -4.453125q0 -2.84375 -1.359375 -4.375q-1.359375 -1.53125 -3.359375 -1.53125q-2.0 0 -3.375 1.53125q-1.359375 1.53125 -1.359375 4.421875zm23.629639 9.671875l-5.125 0l0 -19.359375l4.765625 0l0 2.75q1.21875 -1.953125 2.1875 -2.5625q0.984375 -0.625 2.21875 -0.625q1.75 0 3.375 0.96875l-1.578125 4.46875q-1.296875 -0.84375 -2.40625 -0.84375q-1.078125 0 -1.828125 0.59375q-0.75 0.59375 -1.1875 2.140625q-0.421875 1.546875 -0.421875 6.484375l0 5.984375zm27.386002 0l-4.765625 0l0 -2.84375q-1.1875 1.65625 -2.796875 2.46875q-1.609375 0.8125 -3.25 0.8125q-3.34375 0 -5.71875 -2.6875q-2.375 -2.6875 -2.375 -7.5q0 -4.921875 2.3125 -7.484375q2.3125 -2.5625 5.859375 -2.5625q3.234375 0 5.609375 2.703125l0 -9.625l5.125 0l0 26.71875zm-13.671875 -10.09375q0 3.09375 0.859375 4.484375q1.234375 2.0 3.453125 2.0q1.765625 0 3.0 -1.5q1.25 -1.5 1.25 -4.5q0 -3.328125 -1.203125 -4.796875q-1.203125 -1.46875 -3.078125 -1.46875q-1.828125 0 -3.0625 1.453125q-1.21875 1.4375 -1.21875 4.328125zm18.707764 -11.890625l0 -4.734375l5.125 0l0 4.734375l-5.125 0zm0 21.984375l0 -19.359375l5.125 0l0 19.359375l-5.125 0zm27.980331 0l-5.109375 0l0 -9.875q0 -3.140625 -0.328125 -4.0625q-0.328125 -0.921875 -1.078125 -1.421875q-0.734375 -0.515625 -1.765625 -0.515625q-1.34375 0 -2.40625 0.734375q-1.046875 0.71875 -1.4375 1.921875q-0.390625 1.203125 -0.390625 4.453125l0 8.765625l-5.125 0l0 -19.359375l4.765625 0l0 2.84375q2.53125 -3.28125 6.375 -3.28125q1.6875 0 3.09375 0.609375q1.40625 0.609375 2.125 1.5625q0.71875 0.953125 1.0 2.15625q0.28125 1.203125 0.28125 3.4375l0 12.03125zm9.020264 -13.453125l-4.640625 -0.84375q0.78125 -2.796875 2.6875 -4.140625q1.921875 -1.359375 5.703125 -1.359375q3.421875 0 5.09375 0.8125q1.6875 0.8125 2.359375 2.0625q0.6875 1.25 0.6875 4.578125l-0.046875 5.984375q0 2.546875 0.234375 3.765625q0.25 1.203125 0.921875 2.59375l-5.0625 0q-0.203125 -0.515625 -0.5 -1.515625q-0.125 -0.453125 -0.171875 -0.59375q-1.3125 1.265625 -2.8125 1.90625q-1.5 0.640625 -3.1875 0.640625q-2.984375 0 -4.71875 -1.625q-1.71875 -1.625 -1.71875 -4.09375q0 -1.640625 0.78125 -2.921875q0.78125 -1.296875 2.1875 -1.96875q1.421875 -0.6875 4.09375 -1.203125q3.578125 -0.671875 4.96875 -1.25l0 -0.515625q0 -1.484375 -0.734375 -2.109375q-0.71875 -0.625 -2.75 -0.625q-1.359375 0 -2.125 0.546875q-0.765625 0.53125 -1.25 1.875zm6.859375 4.15625q-0.984375 0.328125 -3.125 0.78125q-2.125 0.453125 -2.78125 0.890625q-1.0 0.71875 -1.0 1.8125q0 1.078125 0.796875 1.859375q0.8125 0.78125 2.046875 0.78125q1.390625 0 2.640625 -0.90625q0.9375 -0.703125 1.21875 -1.703125q0.203125 -0.65625 0.203125 -2.5l0 -1.015625zm18.963242 -10.0625l0 4.078125l-3.5 0l0 7.8125q0 2.359375 0.09375 2.765625q0.09375 0.390625 0.453125 0.640625q0.359375 0.25 0.875 0.25q0.703125 0 2.046875 -0.484375l0.4375 3.96875q-1.78125 0.765625 -4.046875 0.765625q-1.375 0 -2.5 -0.453125q-1.109375 -0.46875 -1.625 -1.203125q-0.515625 -0.75 -0.71875 -2.0q-0.15625 -0.90625 -0.15625 -3.609375l0 -8.453125l-2.359375 0l0 -4.078125l2.359375 0l0 -3.84375l5.140625 -2.984375l0 6.828125l3.5 0zm14.7586975 13.203125l5.09375 0.859375q-0.96875 2.796875 -3.09375 4.265625q-2.125 1.46875 -5.3125 1.46875q-5.0625 0 -7.484375 -3.296875q-1.90625 -2.640625 -1.90625 -6.671875q0 -4.8125 2.515625 -7.53125q2.515625 -2.734375 6.359375 -2.734375q4.3125 0 6.8125 2.859375q2.5 2.84375 2.390625 8.734375l-12.828125 0q0.046875 2.28125 1.234375 3.546875q1.1875 1.265625 2.953125 1.265625q1.203125 0 2.015625 -0.65625q0.828125 -0.65625 1.25 -2.109375zm0.296875 -5.1875q-0.0625 -2.21875 -1.15625 -3.375q-1.09375 -1.15625 -2.65625 -1.15625q-1.6875 0 -2.78125 1.21875q-1.09375 1.21875 -1.0625 3.3125l7.65625 0zm21.994507 11.34375l0 -2.890625q-1.0625 1.546875 -2.78125 2.4375q-1.71875 0.890625 -3.640625 0.890625q-1.953125 0 -3.5 -0.859375q-1.546875 -0.859375 -2.25 -2.40625q-0.6875 -1.546875 -0.6875 -4.28125l0 -12.25l5.125 0l0 8.890625q0 4.09375 0.28125 5.015625q0.28125 0.921875 1.03125 1.453125q0.75 0.53125 1.90625 0.53125q1.3125 0 2.34375 -0.71875q1.046875 -0.71875 1.421875 -1.78125q0.390625 -1.0625 0.390625 -5.21875l0 -8.171875l5.109375 0l0 19.359375l-4.75 0zm14.957764 0l-5.125 0l0 -19.359375l4.765625 0l0 2.75q1.21875 -1.953125 2.1875 -2.5625q0.984375 -0.625 2.21875 -0.625q1.75 0 3.375 0.96875l-1.578125 4.46875q-1.296875 -0.84375 -2.40625 -0.84375q-1.078125 0 -1.828125 0.59375q-0.75 0.59375 -1.1875 2.140625q-0.421875 1.546875 -0.421875 6.484375l0 5.984375z" fill-rule="nonzero"/><path fill="#ea9999" d="m499.12335 85.19948l338.74017 0l0 150.55118l-338.74017 0z" fill-rule="evenodd"/><path stroke="#000000" stroke-width="1.0" stroke-linejoin="round" stroke-linecap="butt" d="m499.12335 85.19948l338.74017 0l0 150.55118l-338.74017 0z" fill-rule="evenodd"/><path fill="#000000" fill-opacity="0.0" d="m535.94226 141.24934l265.10236 0l0 64.62993l-265.10236 0z" fill-rule="evenodd"/><path fill="#000000" d="m562.5513 180.57372l5.140625 -0.796875q0.328125 1.5 1.328125 2.28125q1.0 0.765625 2.8125 0.765625q1.984375 0 2.984375 -0.71875q0.671875 -0.515625 0.671875 -1.375q0 -0.578125 -0.359375 -0.96875q-0.390625 -0.359375 -1.71875 -0.671875q-6.1875 -1.359375 -7.859375 -2.5q-2.296875 -1.5625 -2.296875 -4.359375q0 -2.515625 1.984375 -4.21875q2.0 -1.71875 6.171875 -1.71875q3.96875 0 5.90625 1.296875q1.9375 1.296875 2.65625 3.828125l-4.828125 0.890625q-0.3125 -1.125 -1.1875 -1.71875q-0.859375 -0.609375 -2.453125 -0.609375q-2.03125 0 -2.90625 0.5625q-0.578125 0.40625 -0.578125 1.03125q0 0.546875 0.515625 0.9375q0.6875 0.515625 4.78125 1.453125q4.09375 0.921875 5.71875 2.265625q1.59375 1.359375 1.59375 3.8125q0 2.65625 -2.21875 4.578125q-2.21875 1.90625 -6.578125 1.90625q-3.953125 0 -6.265625 -1.59375q-2.3125 -1.609375 -3.015625 -4.359375zm22.182007 -13.84375l4.71875 0l0 2.640625q2.53125 -3.078125 6.03125 -3.078125q1.859375 0 3.21875 0.765625q1.375 0.765625 2.25 2.3125q1.28125 -1.546875 2.75 -2.3125q1.484375 -0.765625 3.15625 -0.765625q2.140625 0 3.609375 0.875q1.484375 0.859375 2.203125 2.53125q0.53125 1.25 0.53125 4.015625l0 12.375l-5.125 0l0 -11.0625q0 -2.875 -0.53125 -3.71875q-0.703125 -1.09375 -2.1875 -1.09375q-1.0625 0 -2.015625 0.65625q-0.953125 0.65625 -1.375 1.921875q-0.40625 1.265625 -0.40625 4.0l0 9.296875l-5.125 0l0 -10.609375q0 -2.828125 -0.28125 -3.640625q-0.265625 -0.828125 -0.84375 -1.21875q-0.578125 -0.40625 -1.5625 -0.40625q-1.171875 0 -2.125 0.640625q-0.953125 0.640625 -1.359375 1.84375q-0.40625 1.203125 -0.40625 3.984375l0 9.40625l-5.125 0l0 -19.359375zm37.3938 5.90625l-4.640625 -0.84375q0.78125 -2.796875 2.6875 -4.140625q1.921875 -1.359375 5.703125 -1.359375q3.421875 0 5.09375 0.8125q1.6875 0.8125 2.359375 2.0625q0.6875 1.25 0.6875 4.578125l-0.046875 5.984375q0 2.546875 0.234375 3.765625q0.25 1.203125 0.921875 2.59375l-5.0625 0q-0.203125 -0.515625 -0.5 -1.515625q-0.125 -0.453125 -0.171875 -0.59375q-1.3125 1.265625 -2.8125 1.90625q-1.5 0.640625 -3.1875 0.640625q-2.984375 0 -4.71875 -1.625q-1.71875 -1.625 -1.71875 -4.09375q0 -1.640625 0.78125 -2.921875q0.78125 -1.296875 2.1875 -1.96875q1.421875 -0.6875 4.09375 -1.203125q3.578125 -0.671875 4.96875 -1.25l0 -0.515625q0 -1.484375 -0.734375 -2.109375q-0.71875 -0.625 -2.75 -0.625q-1.359375 0 -2.125 0.546875q-0.765625 0.53125 -1.25 1.875zm6.859375 4.15625q-0.984375 0.328125 -3.125 0.78125q-2.125 0.453125 -2.78125 0.890625q-1.0 0.71875 -1.0 1.8125q0 1.078125 0.796875 1.859375q0.8125 0.78125 2.046875 0.78125q1.390625 0 2.640625 -0.90625q0.9375 -0.703125 1.21875 -1.703125q0.203125 -0.65625 0.203125 -2.5l0 -1.015625zm14.978882 9.296875l-5.125 0l0 -19.359375l4.765625 0l0 2.75q1.21875 -1.953125 2.1875 -2.5625q0.984375 -0.625 2.21875 -0.625q1.75 0 3.375 0.96875l-1.578125 4.46875q-1.296875 -0.84375 -2.40625 -0.84375q-1.078125 0 -1.828125 0.59375q-0.75 0.59375 -1.1875 2.140625q-0.421875 1.546875 -0.421875 6.484375l0 5.984375zm18.511047 -19.359375l0 4.078125l-3.5 0l0 7.8125q0 2.359375 0.09375 2.765625q0.09375 0.390625 0.453125 0.640625q0.359375 0.25 0.875 0.25q0.703125 0 2.046875 -0.484375l0.4375 3.96875q-1.78125 0.765625 -4.046875 0.765625q-1.375 0 -2.5 -0.453125q-1.109375 -0.46875 -1.625 -1.203125q-0.515625 -0.75 -0.71875 -2.0q-0.15625 -0.90625 -0.15625 -3.609375l0 -8.453125l-2.359375 0l0 -4.078125l2.359375 0l0 -3.84375l5.140625 -2.984375l0 6.828125l3.5 0zm3.399292 0l4.78125 0l0 2.84375q0.921875 -1.453125 2.5 -2.359375q1.59375 -0.921875 3.53125 -0.921875q3.375 0 5.71875 2.640625q2.359375 2.640625 2.359375 7.375q0 4.84375 -2.375 7.53125q-2.375 2.6875 -5.734375 2.6875q-1.609375 0 -2.921875 -0.640625q-1.296875 -0.640625 -2.734375 -2.1875l0 9.75l-5.125 0l0 -26.71875zm5.0625 9.359375q0 3.25 1.296875 4.8125q1.296875 1.5625 3.15625 1.5625q1.78125 0 2.96875 -1.421875q1.1875 -1.4375 1.1875 -4.703125q0 -3.046875 -1.21875 -4.515625q-1.21875 -1.484375 -3.03125 -1.484375q-1.875 0 -3.125 1.453125q-1.234375 1.453125 -1.234375 4.296875zm22.989014 -16.71875l0 9.828125q2.484375 -2.90625 5.921875 -2.90625q1.765625 0 3.1875 0.65625q1.421875 0.65625 2.140625 1.6875q0.71875 1.015625 0.984375 2.25q0.265625 1.234375 0.265625 3.84375l0 11.359375l-5.109375 0l0 -10.21875q0 -3.046875 -0.296875 -3.859375q-0.296875 -0.828125 -1.03125 -1.3125q-0.734375 -0.484375 -1.84375 -0.484375q-1.28125 0 -2.28125 0.625q-1.0 0.609375 -1.46875 1.859375q-0.46875 1.25 -0.46875 3.6875l0 9.703125l-5.125 0l0 -26.71875l5.125 0zm16.520264 16.765625q0 -2.546875 1.25 -4.9375q1.265625 -2.390625 3.5625 -3.640625q2.3125 -1.265625 5.15625 -1.265625q4.390625 0 7.1875 2.859375q2.8125 2.84375 2.8125 7.203125q0 4.390625 -2.84375 7.28125q-2.828125 2.890625 -7.125 2.890625q-2.65625 0 -5.078125 -1.203125q-2.40625 -1.203125 -3.671875 -3.515625q-1.25 -2.328125 -1.25 -5.671875zm5.25 0.28125q0 2.875 1.359375 4.40625q1.375 1.53125 3.375 1.53125q2.0 0 3.359375 -1.53125q1.359375 -1.53125 1.359375 -4.453125q0 -2.84375 -1.359375 -4.375q-1.359375 -1.53125 -3.359375 -1.53125q-2.0 0 -3.375 1.53125q-1.359375 1.53125 -1.359375 4.421875zm36.332764 9.671875l-5.109375 0l0 -9.875q0 -3.140625 -0.328125 -4.0625q-0.328125 -0.921875 -1.078125 -1.421875q-0.734375 -0.515625 -1.765625 -0.515625q-1.34375 0 -2.40625 0.734375q-1.046875 0.71875 -1.4375 1.921875q-0.390625 1.203125 -0.390625 4.453125l0 8.765625l-5.125 0l0 -19.359375l4.765625 0l0 2.84375q2.53125 -3.28125 6.375 -3.28125q1.6875 0 3.09375 0.609375q1.40625 0.609375 2.125 1.5625q0.71875 0.953125 1.0 2.15625q0.28125 1.203125 0.28125 3.4375l0 12.03125zm16.410889 -6.15625l5.09375 0.859375q-0.96875 2.796875 -3.09375 4.265625q-2.125 1.46875 -5.3125 1.46875q-5.0625 0 -7.484375 -3.296875q-1.90625 -2.640625 -1.90625 -6.671875q0 -4.8125 2.515625 -7.53125q2.515625 -2.734375 6.359375 -2.734375q4.3125 0 6.8125 2.859375q2.5 2.84375 2.390625 8.734375l-12.828125 0q0.046875 2.28125 1.234375 3.546875q1.1875 1.265625 2.953125 1.265625q1.203125 0 2.015625 -0.65625q0.828125 -0.65625 1.25 -2.109375zm0.296875 -5.1875q-0.0625 -2.21875 -1.15625 -3.375q-1.09375 -1.15625 -2.65625 -1.15625q-1.6875 0 -2.78125 1.21875q-1.09375 1.21875 -1.0625 3.3125l7.65625 0z" fill-rule="nonzero"/><path fill="#cfe2f3" d="m142.36482 573.7478l31.418182 -45.08374l94.25456 0l31.418182 45.08374l-31.418182 45.08374l-94.25456 0z" fill-rule="evenodd"/><path stroke="#000000" stroke-width="1.0" stroke-linejoin="round" stroke-linecap="butt" d="m142.36482 573.7478l31.418182 -45.08374l94.25456 0l31.418182 45.08374l-31.418182 45.08374l-94.25456 0z" fill-rule="evenodd"/><path fill="#cfe2f3" d="m284.75592 492.54306l31.418152 -45.08374l94.25455 0l31.418182 45.08374l-31.418182 45.08377l-94.25455 0z" fill-rule="evenodd"/><path stroke="#000000" stroke-width="1.0" stroke-linejoin="round" stroke-linecap="butt" d="m284.75592 492.54306l31.418152 -45.08374l94.25455 0l31.418182 45.08374l-31.418182 45.08377l-94.25455 0z" fill-rule="evenodd"/><path fill="#cfe2f3" d="m455.9475 314.9147l34.81888 -45.083984l104.456696 0l34.81891 45.083984l-34.81891 45.083984l-104.456696 0z" fill-rule="evenodd"/><path stroke="#000000" stroke-width="1.0" stroke-linejoin="round" stroke-linecap="butt" d="m455.9475 314.9147l34.81888 -45.083984l104.456696 0l34.81891 45.083984l-34.81891 45.083984l-104.456696 0z" fill-rule="evenodd"/><path fill="#000000" d="m508.8445 293.72656l-2.34375 0.421875q-0.125 -0.703125 -0.546875 -1.046875q-0.40625 -0.359375 -1.078125 -0.359375q-0.890625 0 -1.421875 0.609375q-0.515625 0.609375 -0.515625 2.046875q0 1.609375 0.53125 2.265625q0.53125 0.65625 1.4375 0.65625q0.6875 0 1.109375 -0.375q0.4375 -0.390625 0.609375 -1.328125l2.34375 0.390625q-0.375 1.609375 -1.40625 2.4375q-1.03125 0.8125 -2.765625 0.8125q-1.96875 0 -3.140625 -1.234375q-1.171875 -1.25 -1.171875 -3.453125q0 -2.21875 1.171875 -3.453125q1.1875 -1.25 3.1875 -1.25q1.640625 0 2.609375 0.703125q0.96875 0.703125 1.390625 2.15625zm7.0121155 3.46875l2.359375 0.390625q-0.453125 1.3125 -1.4375 2.0q-0.984375 0.671875 -2.46875 0.671875q-2.3437805 0 -3.4687805 -1.53125q-0.890625 -1.234375 -0.890625 -3.09375q0 -2.234375 1.171875 -3.5q1.1719055 -1.265625 2.9531555 -1.265625q2.0 0 3.15625 1.328125q1.171875 1.3125 1.109375 4.046875l-5.953125 0q0.03125 1.0625 0.578125 1.65625q0.546875 0.578125 1.375 0.578125q0.546875 0 0.921875 -0.296875q0.390625 -0.3125 0.59375 -0.984375zm0.125 -2.40625q-0.015625 -1.03125 -0.53125 -1.5625q-0.5 -0.546875 -1.234375 -0.546875q-0.78125 0 -1.28125 0.578125q-0.515625 0.5625 -0.5 1.53125l3.546875 0zm10.21521 5.265625l0 -1.34375q-0.484375 0.71875 -1.296875 1.140625q-0.796875 0.40625 -1.671875 0.40625q-0.90625 0 -1.625 -0.390625q-0.71875 -0.40625 -1.046875 -1.125q-0.328125 -0.71875 -0.328125 -1.984375l0 -5.6875l2.390625 0l0 4.125q0 1.890625 0.125 2.328125q0.125 0.421875 0.46875 0.671875q0.359375 0.25 0.890625 0.25q0.609375 0 1.09375 -0.328125q0.484375 -0.34375 0.65625 -0.828125q0.171875 -0.5 0.171875 -2.421875l0 -3.796875l2.375 0l0 8.984375l-2.203125 0zm3.5222168 0l3.25 -4.625l-3.109375 -4.359375l2.90625 0l1.59375 2.46875l1.671875 -2.46875l2.796875 0l-3.046875 4.25l3.3125 4.734375l-2.90625 0l-1.828125 -2.78125l-1.84375 2.78125l-2.796875 0zm21.46698 3.421875l0 -4.515625q-0.453125 0.59375 -1.15625 0.953125q-0.6875 0.34375 -1.5 0.34375q-1.53125 0 -2.515625 -1.15625q-1.171875 -1.34375 -1.171875 -3.640625q0 -2.171875 1.09375 -3.375q1.109375 -1.21875 2.71875 -1.21875q0.90625 0 1.5625 0.390625q0.65625 0.375 1.15625 1.140625l0 -1.328125l2.203125 0l0 12.40625l-2.390625 0zm0.078125 -8.03125q0 -1.375 -0.5625 -2.046875q-0.5625 -0.671875 -1.40625 -0.671875q-0.859375 0 -1.4375 0.6875q-0.578125 0.6875 -0.578125 2.171875q0 1.484375 0.546875 2.140625q0.5625 0.65625 1.390625 0.65625q0.8125 0 1.421875 -0.734375q0.625 -0.734375 0.625 -2.203125zm10.553467 4.609375l0 -1.34375q-0.484375 0.71875 -1.296875 1.140625q-0.796875 0.40625 -1.671875 0.40625q-0.90625 0 -1.625 -0.390625q-0.71875 -0.40625 -1.046875 -1.125q-0.328125 -0.71875 -0.328125 -1.984375l0 -5.6875l2.390625 0l0 4.125q0 1.890625 0.125 2.328125q0.125 0.421875 0.46875 0.671875q0.359375 0.25 0.890625 0.25q0.609375 0 1.09375 -0.328125q0.484375 -0.34375 0.65625 -0.828125q0.171875 -0.5 0.171875 -2.421875l0 -3.796875l2.375 0l0 8.984375l-2.203125 0zm4.678467 -10.203125l0 -2.203125l2.375 0l0 2.203125l-2.375 0zm0 10.203125l0 -8.984375l2.375 0l0 8.984375l-2.375 0z" fill-rule="nonzero"/><path fill="#000000" d="m500.93826 312.0703l2.21875 0l0 1.3125q0.4375 -0.671875 1.171875 -1.09375q0.734375 -0.421875 1.625 -0.421875q1.578125 0 2.65625 1.234375q1.09375 1.21875 1.09375 3.40625q0 2.25 -1.109375 3.5q-1.09375 1.25 -2.65625 1.25q-0.734375 0 -1.34375 -0.296875q-0.609375 -0.296875 -1.28125 -1.015625l0 4.53125l-2.375 0l0 -12.40625zm2.359375 4.34375q0 1.515625 0.59375 2.234375q0.609375 0.71875 1.46875 0.71875q0.828125 0 1.375 -0.65625q0.546875 -0.671875 0.546875 -2.1875q0 -1.40625 -0.5625 -2.09375q-0.5625 -0.6875 -1.40625 -0.6875q-0.875 0 -1.453125 0.671875q-0.5625 0.671875 -0.5625 2.0zm10.069122 -1.609375l-2.1562805 -0.390625q0.375 -1.296875 1.2500305 -1.921875q0.890625 -0.625 2.640625 -0.625q1.59375 0 2.375 0.375q0.78125 0.375 1.09375 0.953125q0.3125 0.578125 0.3125 2.125l-0.015625 2.78125q0 1.1875 0.109375 1.75q0.109375 0.5625 0.421875 1.203125l-2.34375 0q-0.09375 -0.234375 -0.234375 -0.703125q-0.0625 -0.203125 -0.078125 -0.28125q-0.609375 0.59375 -1.3125 0.890625q-0.6875 0.296875 -1.46875 0.296875q-1.390625 0 -2.1875305 -0.75q-0.796875 -0.75 -0.796875 -1.90625q0 -0.765625 0.359375 -1.359375q0.359375 -0.59375 1.0156555 -0.90625q0.65625 -0.328125 1.890625 -0.5625q1.671875 -0.3125 2.3125 -0.578125l0 -0.234375q0 -0.6875 -0.34375 -0.984375q-0.328125 -0.296875 -1.28125 -0.296875q-0.625 0 -0.984375 0.25q-0.359375 0.25 -0.578125 0.875zm3.1875 1.9375q-0.453125 0.15625 -1.453125 0.375q-0.984375 0.203125 -1.296875 0.40625q-0.453125 0.328125 -0.453125 0.828125q0 0.5 0.359375 0.875q0.375 0.359375 0.953125 0.359375q0.640625 0 1.234375 -0.421875q0.421875 -0.328125 0.5625 -0.796875q0.09375 -0.296875 0.09375 -1.15625l0 -0.46875zm6.949585 4.3125l-2.375 0l0 -8.984375l2.203125 0l0 1.28125q0.578125 -0.90625 1.03125 -1.1875q0.453125 -0.296875 1.015625 -0.296875q0.8125 0 1.578125 0.453125l-0.734375 2.0625q-0.609375 -0.390625 -1.125 -0.390625q-0.5 0 -0.84375 0.28125q-0.34375 0.28125 -0.546875 1.0q-0.203125 0.71875 -0.203125 3.0l0 2.78125zm8.587158 -8.984375l0 1.890625l-1.625 0l0 3.625q0 1.09375 0.046875 1.28125q0.046875 0.1875 0.203125 0.3125q0.171875 0.109375 0.421875 0.109375q0.328125 0 0.953125 -0.234375l0.203125 1.84375q-0.828125 0.359375 -1.875 0.359375q-0.65625 0 -1.171875 -0.21875q-0.515625 -0.21875 -0.765625 -0.546875q-0.234375 -0.34375 -0.3125 -0.9375q-0.078125 -0.40625 -0.078125 -1.671875l0 -3.921875l-1.09375 0l0 -1.890625l1.09375 0l0 -1.78125l2.375 -1.390625l0 3.171875l1.625 0zm3.4266357 2.734375l-2.15625 -0.390625q0.375 -1.296875 1.25 -1.921875q0.890625 -0.625 2.640625 -0.625q1.59375 0 2.375 0.375q0.78125 0.375 1.09375 0.953125q0.3125 0.578125 0.3125 2.125l-0.015625 2.78125q0 1.1875 0.109375 1.75q0.109375 0.5625 0.421875 1.203125l-2.34375 0q-0.09375 -0.234375 -0.234375 -0.703125q-0.0625 -0.203125 -0.078125 -0.28125q-0.609375 0.59375 -1.3125 0.890625q-0.6875 0.296875 -1.46875 0.296875q-1.390625 0 -2.1875 -0.75q-0.796875 -0.75 -0.796875 -1.90625q0 -0.765625 0.359375 -1.359375q0.359375 -0.59375 1.015625 -0.90625q0.65625 -0.328125 1.890625 -0.5625q1.671875 -0.3125 2.3125 -0.578125l0 -0.234375q0 -0.6875 -0.34375 -0.984375q-0.328125 -0.296875 -1.28125 -0.296875q-0.625 0 -0.984375 0.25q-0.359375 0.25 -0.578125 0.875zm3.1875 1.9375q-0.453125 0.15625 -1.453125 0.375q-0.984375 0.203125 -1.296875 0.40625q-0.453125 0.328125 -0.453125 0.828125q0 0.5 0.359375 0.875q0.375 0.359375 0.953125 0.359375q0.640625 0 1.234375 -0.421875q0.421875 -0.328125 0.5625 -0.796875q0.09375 -0.296875 0.09375 -1.15625l0 -0.46875zm4.46521 4.90625l2.703125 0.328125q0.078125 0.46875 0.3125 0.65625q0.34375 0.25 1.078125 0.25q0.921875 0 1.390625 -0.28125q0.3125 -0.1875 0.46875 -0.59375q0.109375 -0.296875 0.109375 -1.09375l0 -1.3125q-1.0625 1.453125 -2.6875 1.453125q-1.8125 0 -2.859375 -1.53125q-0.84375 -1.203125 -0.84375 -3.015625q0 -2.25 1.09375 -3.4375q1.09375 -1.203125 2.703125 -1.203125q1.671875 0 2.75 1.46875l0 -1.265625l2.21875 0l0 8.0625q0 1.59375 -0.265625 2.375q-0.25 0.78125 -0.734375 1.234375q-0.46875 0.453125 -1.265625 0.703125q-0.78125 0.25 -1.984375 0.25q-2.296875 0 -3.25 -0.78125q-0.953125 -0.78125 -0.953125 -1.984375q0 -0.109375 0.015625 -0.28125zm2.109375 -5.265625q0 1.421875 0.546875 2.09375q0.5625 0.65625 1.375 0.65625q0.875 0 1.46875 -0.671875q0.609375 -0.6875 0.609375 -2.03125q0 -1.390625 -0.578125 -2.0625q-0.578125 -0.6875 -1.453125 -0.6875q-0.859375 0 -1.421875 0.671875q-0.546875 0.65625 -0.546875 2.03125zm13.897217 1.8125l2.359375 0.390625q-0.453125 1.3125 -1.4375 2.0q-0.984375 0.671875 -2.46875 0.671875q-2.34375 0 -3.46875 -1.53125q-0.890625 -1.234375 -0.890625 -3.09375q0 -2.234375 1.171875 -3.5q1.171875 -1.265625 2.953125 -1.265625q2.0 0 3.15625 1.328125q1.171875 1.3125 1.109375 4.046875l-5.953125 0q0.03125 1.0625 0.578125 1.65625q0.546875 0.578125 1.375 0.578125q0.546875 0 0.921875 -0.296875q0.390625 -0.3125 0.59375 -0.984375zm0.125 -2.40625q-0.015625 -1.03125 -0.53125 -1.5625q-0.5 -0.546875 -1.234375 -0.546875q-0.78125 0 -1.28125 0.578125q-0.515625 0.5625 -0.5 1.53125l3.546875 0zm12.480835 5.265625l-2.375 0l0 -4.578125q0 -1.46875 -0.15625 -1.890625q-0.15625 -0.421875 -0.5 -0.65625q-0.34375 -0.25 -0.828125 -0.25q-0.609375 0 -1.109375 0.34375q-0.484375 0.34375 -0.671875 0.90625q-0.171875 0.546875 -0.171875 2.0625l0 4.0625l-2.375 0l0 -8.984375l2.203125 0l0 1.3125q1.171875 -1.515625 2.953125 -1.515625q0.796875 0 1.4375 0.28125q0.65625 0.28125 0.984375 0.734375q0.34375 0.4375 0.46875 1.0q0.140625 0.546875 0.140625 1.59375l0 5.578125zm6.522217 -8.984375l0 1.890625l-1.625 0l0 3.625q0 1.09375 0.046875 1.28125q0.046875 0.1875 0.203125 0.3125q0.171875 0.109375 0.421875 0.109375q0.328125 0 0.953125 -0.234375l0.203125 1.84375q-0.828125 0.359375 -1.875 0.359375q-0.65625 0 -1.171875 -0.21875q-0.515625 -0.21875 -0.765625 -0.546875q-0.234375 -0.34375 -0.3125 -0.9375q-0.078125 -0.40625 -0.078125 -1.671875l0 -3.921875l-1.09375 0l0 -1.890625l1.09375 0l0 -1.78125l2.375 -1.390625l0 3.171875l1.625 0z" fill-rule="nonzero"/><path fill="#000000" d="m501.0164 342.0547l0 -12.40625l2.375 0l0 12.40625l-2.375 0zm10.017456 -2.859375l2.3593445 0.390625q-0.453125 1.3125 -1.4374695 2.0q-0.984375 0.671875 -2.46875 0.671875q-2.34375 0 -3.46875 -1.53125q-0.890625 -1.234375 -0.890625 -3.09375q0 -2.234375 1.171875 -3.5q1.171875 -1.265625 2.953125 -1.265625q2.0 0 3.1562195 1.328125q1.171875 1.3125 1.109375 4.046875l-5.9530945 0q0.03125 1.0625 0.578125 1.65625q0.546875 0.578125 1.375 0.578125q0.546875 0 0.921875 -0.296875q0.390625 -0.3125 0.59375 -0.984375zm0.125 -2.40625q-0.015625 -1.03125 -0.53125 -1.5625q-0.5 -0.546875 -1.234375 -0.546875q-0.78125 0 -1.28125 0.578125q-0.515625 0.5625 -0.5 1.53125l3.546875 0zm3.4651794 2.703125l2.390625 -0.359375q0.140625 0.6875 0.609375 1.046875q0.46875 0.359375 1.3125 0.359375q0.921875 0 1.375 -0.34375q0.3125 -0.234375 0.3125 -0.625q0 -0.28125 -0.15625 -0.453125q-0.1875 -0.171875 -0.796875 -0.3125q-2.875 -0.640625 -3.65625 -1.15625q-1.0625 -0.734375 -1.0625 -2.03125q0 -1.15625 0.921875 -1.953125q0.921875 -0.796875 2.859375 -0.796875q1.84375 0 2.734375 0.609375q0.90625 0.59375 1.25 1.765625l-2.25 0.421875q-0.140625 -0.53125 -0.546875 -0.8125q-0.390625 -0.28125 -1.140625 -0.28125q-0.9375 0 -1.34375 0.265625q-0.28125 0.1875 -0.28125 0.484375q0 0.25 0.25 0.4375q0.3125 0.234375 2.203125 0.671875q1.90625 0.421875 2.671875 1.046875q0.734375 0.640625 0.734375 1.765625q0 1.234375 -1.03125 2.125q-1.03125 0.890625 -3.046875 0.890625q-1.84375 0 -2.921875 -0.734375q-1.0625 -0.75 -1.390625 -2.03125zm14.451416 0l2.390625 -0.359375q0.140625 0.6875 0.609375 1.046875q0.46875 0.359375 1.3125 0.359375q0.921875 0 1.375 -0.34375q0.3125 -0.234375 0.3125 -0.625q0 -0.28125 -0.15625 -0.453125q-0.1875 -0.171875 -0.796875 -0.3125q-2.875 -0.640625 -3.65625 -1.15625q-1.0625 -0.734375 -1.0625 -2.03125q0 -1.15625 0.921875 -1.953125q0.921875 -0.796875 2.859375 -0.796875q1.84375 0 2.734375 0.609375q0.90625 0.59375 1.25 1.765625l-2.25 0.421875q-0.140625 -0.53125 -0.546875 -0.8125q-0.390625 -0.28125 -1.140625 -0.28125q-0.9375 0 -1.34375 0.265625q-0.28125 0.1875 -0.28125 0.484375q0 0.25 0.25 0.4375q0.3125 0.234375 2.203125 0.671875q1.90625 0.421875 2.671875 1.046875q0.734375 0.640625 0.734375 1.765625q0 1.234375 -1.03125 2.125q-1.03125 0.890625 -3.046875 0.890625q-1.84375 0 -2.921875 -0.734375q-1.0625 -0.75 -1.390625 -2.03125zm14.59021 -6.421875l0 1.890625l-1.625 0l0 3.625q0 1.09375 0.046875 1.28125q0.046875 0.1875 0.203125 0.3125q0.171875 0.109375 0.421875 0.109375q0.328125 0 0.953125 -0.234375l0.203125 1.84375q-0.828125 0.359375 -1.875 0.359375q-0.65625 0 -1.171875 -0.21875q-0.515625 -0.21875 -0.765625 -0.546875q-0.234375 -0.34375 -0.3125 -0.9375q-0.078125 -0.40625 -0.078125 -1.671875l0 -3.921875l-1.09375 0l0 -1.890625l1.09375 0l0 -1.78125l2.375 -1.390625l0 3.171875l1.625 0zm3.4266357 2.734375l-2.15625 -0.390625q0.375 -1.296875 1.25 -1.921875q0.890625 -0.625 2.640625 -0.625q1.59375 0 2.375 0.375q0.78125 0.375 1.09375 0.953125q0.3125 0.578125 0.3125 2.125l-0.015625 2.78125q0 1.1875 0.109375 1.75q0.109375 0.5625 0.421875 1.203125l-2.34375 0q-0.09375 -0.234375 -0.234375 -0.703125q-0.0625 -0.203125 -0.078125 -0.28125q-0.609375 0.59375 -1.3125 0.890625q-0.6875 0.296875 -1.46875 0.296875q-1.390625 0 -2.1875 -0.75q-0.796875 -0.75 -0.796875 -1.90625q0 -0.765625 0.359375 -1.359375q0.359375 -0.59375 1.015625 -0.90625q0.65625 -0.328125 1.890625 -0.5625q1.671875 -0.3125 2.3125 -0.578125l0 -0.234375q0 -0.6875 -0.34375 -0.984375q-0.328125 -0.296875 -1.28125 -0.296875q-0.625 0 -0.984375 0.25q-0.359375 0.25 -0.578125 0.875zm3.1875 1.9375q-0.453125 0.15625 -1.453125 0.375q-0.984375 0.203125 -1.296875 0.40625q-0.453125 0.328125 -0.453125 0.828125q0 0.5 0.359375 0.875q0.375 0.359375 0.953125 0.359375q0.640625 0 1.234375 -0.421875q0.421875 -0.328125 0.5625 -0.796875q0.09375 -0.296875 0.09375 -1.15625l0 -0.46875zm8.793335 -4.671875l0 1.890625l-1.625 0l0 3.625q0 1.09375 0.046875 1.28125q0.046875 0.1875 0.203125 0.3125q0.171875 0.109375 0.421875 0.109375q0.328125 0 0.953125 -0.234375l0.203125 1.84375q-0.828125 0.359375 -1.875 0.359375q-0.65625 0 -1.171875 -0.21875q-0.515625 -0.21875 -0.765625 -0.546875q-0.234375 -0.34375 -0.3125 -0.9375q-0.078125 -0.40625 -0.078125 -1.671875l0 -3.921875l-1.09375 0l0 -1.890625l1.09375 0l0 -1.78125l2.375 -1.390625l0 3.171875l1.625 0zm7.567322 8.984375l0 -1.34375q-0.484375 0.71875 -1.296875 1.140625q-0.796875 0.40625 -1.671875 0.40625q-0.90625 0 -1.625 -0.390625q-0.71875 -0.40625 -1.046875 -1.125q-0.328125 -0.71875 -0.328125 -1.984375l0 -5.6875l2.390625 0l0 4.125q0 1.890625 0.125 2.328125q0.125 0.421875 0.46875 0.671875q0.359375 0.25 0.890625 0.25q0.609375 0 1.09375 -0.328125q0.484375 -0.34375 0.65625 -0.828125q0.171875 -0.5 0.171875 -2.421875l0 -3.796875l2.375 0l0 8.984375l-2.203125 0zm8.787842 -8.984375l0 1.890625l-1.625 0l0 3.625q0 1.09375 0.046875 1.28125q0.046875 0.1875 0.203125 0.3125q0.171875 0.109375 0.421875 0.109375q0.328125 0 0.953125 -0.234375l0.203125 1.84375q-0.828125 0.359375 -1.875 0.359375q-0.65625 0 -1.171875 -0.21875q-0.515625 -0.21875 -0.765625 -0.546875q-0.234375 -0.34375 -0.3125 -0.9375q-0.078125 -0.40625 -0.078125 -1.671875l0 -3.921875l-1.09375 0l0 -1.890625l1.09375 0l0 -1.78125l2.375 -1.390625l0 3.171875l1.625 0zm0.81726074 6.421875l2.390625 -0.359375q0.140625 0.6875 0.609375 1.046875q0.46875 0.359375 1.3125 0.359375q0.921875 0 1.375 -0.34375q0.3125 -0.234375 0.3125 -0.625q0 -0.28125 -0.15625 -0.453125q-0.1875 -0.171875 -0.796875 -0.3125q-2.875 -0.640625 -3.65625 -1.15625q-1.0625 -0.734375 -1.0625 -2.03125q0 -1.15625 0.921875 -1.953125q0.921875 -0.796875 2.859375 -0.796875q1.84375 0 2.734375 0.609375q0.90625 0.59375 1.25 1.765625l-2.25 0.421875q-0.140625 -0.53125 -0.546875 -0.8125q-0.390625 -0.28125 -1.140625 -0.28125q-0.9375 0 -1.34375 0.265625q-0.28125 0.1875 -0.28125 0.484375q0 0.25 0.25 0.4375q0.3125 0.234375 2.203125 0.671875q1.90625 0.421875 2.671875 1.046875q0.734375 0.640625 0.734375 1.765625q0 1.234375 -1.03125 2.125q-1.03125 0.890625 -3.046875 0.890625q-1.84375 0 -2.921875 -0.734375q-1.0625 -0.75 -1.390625 -2.03125z" fill-rule="nonzero"/><path fill="#cfe2f3" d="m657.0446 555.5116l31.418213 -45.08377l94.25452 0l31.418152 45.08377l-31.418152 45.08374l-94.25452 0z" fill-rule="evenodd"/><path stroke="#000000" stroke-width="1.0" stroke-linejoin="round" stroke-linecap="butt" d="m657.0446 555.5116l31.418213 -45.08377l94.25452 0l31.418152 45.08377l-31.418152 45.08374l-94.25452 0z" fill-rule="evenodd"/><path fill="#000000" d="m705.85345 526.02783l-2.171875 0.390625q-0.109375 -0.65625 -0.5 -0.984375q-0.375 -0.328125 -1.0 -0.328125q-0.8125 0 -1.3125 0.578125q-0.484375 0.5625 -0.484375 1.890625q0 1.46875 0.5 2.078125q0.5 0.609375 1.328125 0.609375q0.625 0 1.015625 -0.34375q0.40625 -0.359375 0.578125 -1.234375l2.15625 0.375q-0.34375 1.484375 -1.296875 2.25q-0.953125 0.75 -2.546875 0.75q-1.828125 0 -2.90625 -1.140625q-1.078125 -1.15625 -1.078125 -3.1875q0 -2.0625 1.078125 -3.203125q1.09375 -1.140625 2.9375 -1.140625q1.515625 0 2.40625 0.65625q0.90625 0.640625 1.296875 1.984375zm6.4609375 3.203125l2.1875 0.359375q-0.421875 1.203125 -1.328125 1.84375q-0.90625 0.625 -2.28125 0.625q-2.15625 0 -3.203125 -1.421875q-0.8125 -1.125 -0.8125 -2.859375q0 -2.0625 1.078125 -3.21875q1.078125 -1.171875 2.71875 -1.171875q1.859375 0 2.921875 1.21875q1.078125 1.21875 1.03125 3.75l-5.5 0q0.015625 0.96875 0.515625 1.515625q0.515625 0.546875 1.28125 0.546875q0.515625 0 0.859375 -0.28125q0.359375 -0.28125 0.53125 -0.90625zm0.125 -2.21875q-0.015625 -0.953125 -0.484375 -1.453125q-0.46875 -0.5 -1.140625 -0.5q-0.71875 0 -1.1875 0.53125q-0.46875 0.515625 -0.46875 1.421875l3.28125 0zm9.4296875 4.859375l0 -1.25q-0.453125 0.671875 -1.1875 1.0625q-0.734375 0.375 -1.5625 0.375q-0.828125 0 -1.5 -0.359375q-0.65625 -0.375 -0.953125 -1.03125q-0.296875 -0.671875 -0.296875 -1.84375l0 -5.25l2.1875 0l0 3.8125q0 1.75 0.125 2.140625q0.125 0.390625 0.4375 0.625q0.328125 0.234375 0.8125 0.234375q0.5625 0 1.0 -0.3125q0.453125 -0.3125 0.609375 -0.765625q0.171875 -0.453125 0.171875 -2.234375l0 -3.5l2.203125 0l0 8.296875l-2.046875 0zm3.2578125 0l3.0 -4.28125l-2.875 -4.015625l2.6875 0l1.46875 2.28125l1.546875 -2.28125l2.578125 0l-2.8125 3.921875l3.0625 4.375l-2.6875 0l-1.6875 -2.578125l-1.703125 2.578125l-2.578125 0zm19.828125 3.15625l0 -4.171875q-0.4375 0.546875 -1.078125 0.875q-0.640625 0.328125 -1.375 0.328125q-1.421875 0 -2.328125 -1.0625q-1.078125 -1.25 -1.078125 -3.375q0 -2.0 1.0 -3.109375q1.015625 -1.125 2.515625 -1.125q0.828125 0 1.4375 0.359375q0.609375 0.34375 1.078125 1.046875l0 -1.21875l2.015625 0l0 11.453125l-2.1875 0zm0.0625 -7.40625q0 -1.28125 -0.515625 -1.890625q-0.515625 -0.625 -1.296875 -0.625q-0.796875 0 -1.34375 0.640625q-0.53125 0.625 -0.53125 2.0q0 1.359375 0.515625 1.96875q0.515625 0.609375 1.28125 0.609375q0.75 0 1.3125 -0.671875q0.578125 -0.6875 0.578125 -2.03125zm9.7421875 4.25l0 -1.25q-0.453125 0.671875 -1.1875 1.0625q-0.734375 0.375 -1.5625 0.375q-0.828125 0 -1.5 -0.359375q-0.65625 -0.375 -0.953125 -1.03125q-0.296875 -0.671875 -0.296875 -1.84375l0 -5.25l2.1875 0l0 3.8125q0 1.75 0.125 2.140625q0.125 0.390625 0.4375 0.625q0.328125 0.234375 0.8125 0.234375q0.5625 0 1.0 -0.3125q0.453125 -0.3125 0.609375 -0.765625q0.171875 -0.453125 0.171875 -2.234375l0 -3.5l2.203125 0l0 8.296875l-2.046875 0zm4.3203125 -9.421875l0 -2.03125l2.1875 0l0 2.03125l-2.1875 0zm0 9.421875l0 -8.296875l2.1875 0l0 8.296875l-2.1875 0z" fill-rule="nonzero"/><path fill="#000000" d="m705.85345 545.02783l-2.171875 0.390625q-0.109375 -0.65625 -0.5 -0.984375q-0.375 -0.328125 -1.0 -0.328125q-0.8125 0 -1.3125 0.578125q-0.484375 0.5625 -0.484375 1.890625q0 1.46875 0.5 2.078125q0.5 0.609375 1.328125 0.609375q0.625 0 1.015625 -0.34375q0.40625 -0.359375 0.578125 -1.234375l2.15625 0.375q-0.34375 1.484375 -1.296875 2.25q-0.953125 0.75 -2.546875 0.75q-1.828125 0 -2.90625 -1.140625q-1.078125 -1.15625 -1.078125 -3.1875q0 -2.0625 1.078125 -3.203125q1.09375 -1.140625 2.9375 -1.140625q1.515625 0 2.40625 0.65625q0.90625 0.640625 1.296875 1.984375zm1.1484375 1.578125q0 -1.09375 0.53125 -2.109375q0.546875 -1.03125 1.53125 -1.5625q1.0 -0.546875 2.21875 -0.546875q1.875 0 3.078125 1.21875q1.203125 1.21875 1.203125 3.09375q0 1.875 -1.21875 3.125q-1.203125 1.234375 -3.046875 1.234375q-1.140625 0 -2.1875 -0.515625q-1.03125 -0.515625 -1.578125 -1.515625q-0.53125 -1.0 -0.53125 -2.421875zm2.25 0.109375q0 1.234375 0.578125 1.890625q0.59375 0.65625 1.453125 0.65625q0.859375 0 1.4375 -0.65625q0.59375 -0.65625 0.59375 -1.90625q0 -1.21875 -0.59375 -1.875q-0.578125 -0.65625 -1.4375 -0.65625q-0.859375 0 -1.453125 0.65625q-0.578125 0.65625 -0.578125 1.890625zm7.8671875 -4.140625l2.03125 0l0 1.125q1.078125 -1.3125 2.578125 -1.3125q0.796875 0 1.375 0.328125q0.59375 0.328125 0.96875 0.984375q0.546875 -0.65625 1.171875 -0.984375q0.640625 -0.328125 1.359375 -0.328125q0.921875 0 1.546875 0.375q0.640625 0.359375 0.953125 1.078125q0.21875 0.53125 0.21875 1.71875l0 5.3125l-2.1875 0l0 -4.75q0 -1.234375 -0.234375 -1.59375q-0.296875 -0.46875 -0.9375 -0.46875q-0.453125 0 -0.859375 0.28125q-0.40625 0.28125 -0.59375 0.828125q-0.171875 0.546875 -0.171875 1.71875l0 3.984375l-2.203125 0l0 -4.546875q0 -1.21875 -0.125 -1.5625q-0.109375 -0.359375 -0.359375 -0.53125q-0.234375 -0.171875 -0.65625 -0.171875q-0.515625 0 -0.921875 0.28125q-0.40625 0.265625 -0.578125 0.78125q-0.171875 0.515625 -0.171875 1.71875l0 4.03125l-2.203125 0l0 -8.296875zm14.2265625 0l2.03125 0l0 1.125q1.078125 -1.3125 2.578125 -1.3125q0.796875 0 1.375 0.328125q0.59375 0.328125 0.96875 0.984375q0.546875 -0.65625 1.171875 -0.984375q0.640625 -0.328125 1.359375 -0.328125q0.921875 0 1.546875 0.375q0.640625 0.359375 0.953125 1.078125q0.21875 0.53125 0.21875 1.71875l0 5.3125l-2.1875 0l0 -4.75q0 -1.234375 -0.234375 -1.59375q-0.296875 -0.46875 -0.9375 -0.46875q-0.453125 0 -0.859375 0.28125q-0.40625 0.28125 -0.59375 0.828125q-0.171875 0.546875 -0.171875 1.71875l0 3.984375l-2.203125 0l0 -4.546875q0 -1.21875 -0.125 -1.5625q-0.109375 -0.359375 -0.359375 -0.53125q-0.234375 -0.171875 -0.65625 -0.171875q-0.515625 0 -0.921875 0.28125q-0.40625 0.265625 -0.578125 0.78125q-0.171875 0.515625 -0.171875 1.71875l0 4.03125l-2.203125 0l0 -8.296875zm19.195312 5.65625l2.1875 0.359375q-0.421875 1.203125 -1.328125 1.84375q-0.90625 0.625 -2.28125 0.625q-2.15625 0 -3.203125 -1.421875q-0.8125 -1.125 -0.8125 -2.859375q0 -2.0625 1.078125 -3.21875q1.078125 -1.171875 2.71875 -1.171875q1.859375 0 2.921875 1.21875q1.078125 1.21875 1.03125 3.75l-5.5 0q0.015625 0.96875 0.515625 1.515625q0.515625 0.546875 1.28125 0.546875q0.515625 0 0.859375 -0.28125q0.359375 -0.28125 0.53125 -0.90625zm0.125 -2.21875q-0.015625 -0.953125 -0.484375 -1.453125q-0.46875 -0.5 -1.140625 -0.5q-0.71875 0 -1.1875 0.53125q-0.46875 0.515625 -0.46875 1.421875l3.28125 0zm11.5234375 4.859375l-2.203125 0l0 -4.234375q0 -1.34375 -0.140625 -1.734375q-0.140625 -0.40625 -0.453125 -0.625q-0.3125 -0.21875 -0.765625 -0.21875q-0.5625 0 -1.015625 0.3125q-0.453125 0.3125 -0.625 0.828125q-0.171875 0.515625 -0.171875 1.90625l0 3.765625l-2.1875 0l0 -8.296875l2.03125 0l0 1.21875q1.09375 -1.40625 2.734375 -1.40625q0.734375 0 1.328125 0.265625q0.609375 0.25 0.90625 0.65625q0.3125 0.40625 0.4375 0.921875q0.125 0.515625 0.125 1.484375l0 5.15625zm6.0234375 -8.296875l0 1.75l-1.5 0l0 3.34375q0 1.015625 0.046875 1.1875q0.046875 0.15625 0.1875 0.265625q0.15625 0.109375 0.375 0.109375q0.3125 0 0.890625 -0.203125l0.1875 1.703125q-0.765625 0.328125 -1.734375 0.328125q-0.59375 0 -1.078125 -0.203125q-0.46875 -0.203125 -0.703125 -0.515625q-0.21875 -0.3125 -0.296875 -0.859375q-0.078125 -0.375 -0.078125 -1.546875l0 -3.609375l-1.0 0l0 -1.75l1.0 0l0 -1.65625l2.203125 -1.28125l0 2.9375l1.5 0z" fill-rule="nonzero"/><path fill="#000000" d="m698.6191 569.8716l0 -11.453125l2.1875 0l0 11.453125l-2.1875 0zm9.2421875 -2.640625l2.1875 0.359375q-0.421875 1.203125 -1.328125 1.84375q-0.90625 0.625 -2.28125 0.625q-2.15625 0 -3.203125 -1.421875q-0.8125 -1.125 -0.8125 -2.859375q0 -2.0625 1.078125 -3.21875q1.078125 -1.171875 2.71875 -1.171875q1.859375 0 2.921875 1.21875q1.078125 1.21875 1.03125 3.75l-5.5 0q0.015625 0.96875 0.515625 1.515625q0.515625 0.546875 1.28125 0.546875q0.515625 0 0.859375 -0.28125q0.359375 -0.28125 0.53125 -0.90625zm0.125 -2.21875q-0.015625 -0.953125 -0.484375 -1.453125q-0.46875 -0.5 -1.140625 -0.5q-0.71875 0 -1.1875 0.53125q-0.46875 0.515625 -0.46875 1.421875l3.28125 0zm3.1953125 2.484375l2.203125 -0.328125q0.140625 0.640625 0.5625 0.96875q0.4375 0.328125 1.21875 0.328125q0.84375 0 1.28125 -0.3125q0.28125 -0.21875 0.28125 -0.578125q0 -0.25 -0.15625 -0.421875q-0.15625 -0.15625 -0.734375 -0.28125q-2.65625 -0.59375 -3.359375 -1.078125q-0.984375 -0.671875 -0.984375 -1.859375q0 -1.078125 0.84375 -1.8125q0.859375 -0.734375 2.640625 -0.734375q1.703125 0 2.53125 0.5625q0.828125 0.546875 1.140625 1.625l-2.0625 0.390625q-0.140625 -0.484375 -0.515625 -0.734375q-0.359375 -0.265625 -1.046875 -0.265625q-0.875 0 -1.25 0.234375q-0.25 0.171875 -0.25 0.453125q0 0.234375 0.21875 0.390625q0.296875 0.21875 2.046875 0.625q1.765625 0.390625 2.453125 0.96875q0.6875 0.59375 0.6875 1.640625q0 1.140625 -0.953125 1.96875q-0.953125 0.8125 -2.8125 0.8125q-1.703125 0 -2.6875 -0.6875q-0.984375 -0.6875 -1.296875 -1.875z" fill-rule="nonzero"/><path fill="#000000" d="m697.8378 587.77655l2.203125 -0.328125q0.140625 0.640625 0.5625 0.96875q0.4375 0.328125 1.21875 0.328125q0.84375 0 1.28125 -0.3125q0.28125 -0.21875 0.28125 -0.578125q0 -0.25 -0.15625 -0.421875q-0.15625 -0.15625 -0.734375 -0.28125q-2.65625 -0.59375 -3.359375 -1.078125q-0.984375 -0.671875 -0.984375 -1.859375q0 -1.078125 0.84375 -1.8125q0.859375 -0.734375 2.640625 -0.734375q1.703125 0 2.53125 0.5625q0.828125 0.546875 1.140625 1.625l-2.0625 0.390625q-0.140625 -0.484375 -0.515625 -0.734375q-0.359375 -0.265625 -1.046875 -0.265625q-0.875 0 -1.25 0.234375q-0.25 0.171875 -0.25 0.453125q0 0.234375 0.21875 0.390625q0.296875 0.21875 2.046875 0.625q1.765625 0.390625 2.453125 0.96875q0.6875 0.59375 0.6875 1.640625q0 1.140625 -0.953125 1.96875q-0.953125 0.8125 -2.8125 0.8125q-1.703125 0 -2.6875 -0.6875q-0.984375 -0.6875 -1.296875 -1.875zm13.4765625 -5.921875l0 1.75l-1.5 0l0 3.34375q0 1.015625 0.046875 1.1875q0.046875 0.15625 0.1875 0.265625q0.15625 0.109375 0.375 0.109375q0.3125 0 0.890625 -0.203125l0.1875 1.703125q-0.765625 0.328125 -1.734375 0.328125q-0.59375 0 -1.078125 -0.203125q-0.46875 -0.203125 -0.703125 -0.515625q-0.21875 -0.3125 -0.296875 -0.859375q-0.078125 -0.375 -0.078125 -1.546875l0 -3.609375l-1.0 0l0 -1.75l1.0 0l0 -1.65625l2.203125 -1.28125l0 2.9375l1.5 0zm3.171875 2.53125l-2.0 -0.359375q0.34375 -1.203125 1.15625 -1.78125q0.828125 -0.578125 2.4375 -0.578125q1.46875 0 2.1875 0.34375q0.71875 0.34375 1.015625 0.890625q0.296875 0.53125 0.296875 1.953125l-0.03125 2.5625q0 1.09375 0.109375 1.625q0.109375 0.515625 0.390625 1.109375l-2.171875 0q-0.078125 -0.21875 -0.203125 -0.65625q-0.0625 -0.1875 -0.078125 -0.25q-0.5625 0.546875 -1.203125 0.828125q-0.640625 0.265625 -1.375 0.265625q-1.28125 0 -2.015625 -0.6875q-0.734375 -0.703125 -0.734375 -1.765625q0 -0.703125 0.328125 -1.25q0.34375 -0.5625 0.9375 -0.84375q0.609375 -0.296875 1.75 -0.515625q1.546875 -0.296875 2.140625 -0.546875l0 -0.21875q0 -0.625 -0.3125 -0.890625q-0.3125 -0.28125 -1.1875 -0.28125q-0.578125 0 -0.90625 0.234375q-0.328125 0.234375 -0.53125 0.8125zm2.9375 1.78125q-0.421875 0.140625 -1.34375 0.34375q-0.90625 0.1875 -1.1875 0.375q-0.4375 0.296875 -0.4375 0.765625q0 0.46875 0.34375 0.8125q0.34375 0.328125 0.875 0.328125q0.59375 0 1.140625 -0.390625q0.390625 -0.296875 0.515625 -0.734375q0.09375 -0.28125 0.09375 -1.0625l0 -0.4375zm8.1171875 -4.3125l0 1.75l-1.5 0l0 3.34375q0 1.015625 0.046875 1.1875q0.046875 0.15625 0.1875 0.265625q0.15625 0.109375 0.375 0.109375q0.3125 0 0.890625 -0.203125l0.1875 1.703125q-0.765625 0.328125 -1.734375 0.328125q-0.59375 0 -1.078125 -0.203125q-0.46875 -0.203125 -0.703125 -0.515625q-0.21875 -0.3125 -0.296875 -0.859375q-0.078125 -0.375 -0.078125 -1.546875l0 -3.609375l-1.0 0l0 -1.75l1.0 0l0 -1.65625l2.203125 -1.28125l0 2.9375l1.5 0zm6.984375 8.296875l0 -1.25q-0.453125 0.671875 -1.1875 1.0625q-0.734375 0.375 -1.5625 0.375q-0.828125 0 -1.5 -0.359375q-0.65625 -0.375 -0.953125 -1.03125q-0.296875 -0.671875 -0.296875 -1.84375l0 -5.25l2.1875 0l0 3.8125q0 1.75 0.125 2.140625q0.125 0.390625 0.4375 0.625q0.328125 0.234375 0.8125 0.234375q0.5625 0 1.0 -0.3125q0.453125 -0.3125 0.609375 -0.765625q0.171875 -0.453125 0.171875 -2.234375l0 -3.5l2.203125 0l0 8.296875l-2.046875 0zm8.1171875 -8.296875l0 1.75l-1.5 0l0 3.34375q0 1.015625 0.046875 1.1875q0.046875 0.15625 0.1875 0.265625q0.15625 0.109375 0.375 0.109375q0.3125 0 0.890625 -0.203125l0.1875 1.703125q-0.765625 0.328125 -1.734375 0.328125q-0.59375 0 -1.078125 -0.203125q-0.46875 -0.203125 -0.703125 -0.515625q-0.21875 -0.3125 -0.296875 -0.859375q-0.078125 -0.375 -0.078125 -1.546875l0 -3.609375l-1.0 0l0 -1.75l1.0 0l0 -1.65625l2.203125 -1.28125l0 2.9375l1.5 0z" fill-rule="nonzero"/><path fill="#000000" d="m741.42377 587.58905l2.390625 -0.359375q0.140625 0.6875 0.609375 1.046875q0.46875 0.359375 1.3125 0.359375q0.921875 0 1.375 -0.34375q0.3125 -0.234375 0.3125 -0.625q0 -0.28125 -0.15625 -0.453125q-0.1875 -0.171875 -0.796875 -0.3125q-2.875 -0.640625 -3.65625 -1.15625q-1.0625 -0.734375 -1.0625 -2.03125q0 -1.15625 0.921875 -1.953125q0.921875 -0.796875 2.859375 -0.796875q1.84375 0 2.734375 0.609375q0.90625 0.59375 1.25 1.765625l-2.25 0.421875q-0.140625 -0.53125 -0.546875 -0.8125q-0.390625 -0.28125 -1.140625 -0.28125q-0.9375 0 -1.34375 0.265625q-0.28125 0.1875 -0.28125 0.484375q0 0.25 0.25 0.4375q0.3125 0.234375 2.203125 0.671875q1.90625 0.421875 2.671875 1.046875q0.734375 0.640625 0.734375 1.765625q0 1.234375 -1.03125 2.125q-1.03125 0.890625 -3.046875 0.890625q-1.84375 0 -2.921875 -0.734375q-1.0625 -0.75 -1.390625 -2.03125z" fill-rule="nonzero"/><path fill="#cfe2f3" d="m801.0446 373.089l31.418213 -45.08374l94.25452 0l31.418152 45.08374l-31.418152 45.08377l-94.25452 0z" fill-rule="evenodd"/><path stroke="#000000" stroke-width="1.0" stroke-linejoin="round" stroke-linecap="butt" d="m801.0446 373.089l31.418213 -45.08374l94.25452 0l31.418152 45.08374l-31.418152 45.08377l-94.25452 0z" fill-rule="evenodd"/><path fill="#000000" d="m851.2441 352.1965l-2.53125 0.453125q-0.125 -0.75 -0.578125 -1.125q-0.453125 -0.390625 -1.171875 -0.390625q-0.953125 0 -1.53125 0.65625q-0.5625 0.65625 -0.5625 2.203125q0 1.734375 0.578125 2.4375q0.578125 0.703125 1.546875 0.703125q0.734375 0 1.203125 -0.40625q0.46875 -0.421875 0.65625 -1.421875l2.515625 0.421875q-0.390625 1.734375 -1.515625 2.625q-1.109375 0.875 -2.96875 0.875q-2.125 0 -3.390625 -1.328125q-1.25 -1.34375 -1.25 -3.71875q0 -2.390625 1.265625 -3.71875q1.265625 -1.34375 3.421875 -1.34375q1.765625 0 2.796875 0.765625q1.046875 0.75 1.515625 2.3125z" fill-rule="nonzero"/><path fill="#000000" d="m858.2916 356.14963l2.359375 0.390625q-0.453125 1.3125 -1.4375 2.0q-0.984375 0.671875 -2.46875 0.671875q-2.34375 0 -3.46875 -1.53125q-0.890625 -1.234375 -0.890625 -3.09375q0 -2.234375 1.171875 -3.5q1.171875 -1.265625 2.953125 -1.265625q2.0 0 3.15625 1.328125q1.171875 1.3125 1.109375 4.046875l-5.953125 0q0.03125 1.0625 0.578125 1.65625q0.546875 0.578125 1.375 0.578125q0.546875 0 0.921875 -0.296875q0.390625 -0.3125 0.59375 -0.984375zm0.125 -2.40625q-0.015625 -1.03125 -0.53125 -1.5625q-0.5 -0.546875 -1.234375 -0.546875q-0.78125 0 -1.28125 0.578125q-0.515625 0.5625 -0.5 1.53125l3.546875 0zm10.21521 5.265625l0 -1.34375q-0.484375 0.71875 -1.296875 1.140625q-0.796875 0.40625 -1.671875 0.40625q-0.90625 0 -1.625 -0.390625q-0.71875 -0.40625 -1.046875 -1.125q-0.328125 -0.71875 -0.328125 -1.984375l0 -5.6875l2.390625 0l0 4.125q0 1.890625 0.125 2.328125q0.125 0.421875 0.46875 0.671875q0.359375 0.25 0.890625 0.25q0.609375 0 1.09375 -0.328125q0.484375 -0.34375 0.65625 -0.828125q0.171875 -0.5 0.171875 -2.421875l0 -3.796875l2.375 0l0 8.984375l-2.203125 0zm3.5222168 0l3.25 -4.625l-3.109375 -4.359375l2.90625 0l1.59375 2.46875l1.671875 -2.46875l2.796875 0l-3.046875 4.25l3.3125 4.734375l-2.90625 0l-1.828125 -2.78125l-1.84375 2.78125l-2.796875 0zm21.467041 3.421875l0 -4.515625q-0.453125 0.59375 -1.15625 0.953125q-0.6875 0.34375 -1.5 0.34375q-1.53125 0 -2.515625 -1.15625q-1.171875 -1.34375 -1.171875 -3.640625q0 -2.171875 1.09375 -3.375q1.109375 -1.21875 2.71875 -1.21875q0.90625 0 1.5625 0.390625q0.65625 0.375 1.15625 1.140625l0 -1.328125l2.203125 0l0 12.40625l-2.390625 0zm0.078125 -8.03125q0 -1.375 -0.5625 -2.046875q-0.5625 -0.671875 -1.40625 -0.671875q-0.859375 0 -1.4375 0.6875q-0.578125 0.6875 -0.578125 2.171875q0 1.484375 0.546875 2.140625q0.5625 0.65625 1.390625 0.65625q0.8125 0 1.421875 -0.734375q0.625 -0.734375 0.625 -2.203125zm10.553467 4.609375l0 -1.34375q-0.484375 0.71875 -1.296875 1.140625q-0.796875 0.40625 -1.671875 0.40625q-0.90625 0 -1.625 -0.390625q-0.71875 -0.40625 -1.046875 -1.125q-0.328125 -0.71875 -0.328125 -1.984375l0 -5.6875l2.390625 0l0 4.125q0 1.890625 0.125 2.328125q0.125 0.421875 0.46875 0.671875q0.359375 0.25 0.890625 0.25q0.609375 0 1.09375 -0.328125q0.484375 -0.34375 0.65625 -0.828125q0.171875 -0.5 0.171875 -2.421875l0 -3.796875l2.375 0l0 8.984375l-2.203125 0zm4.678467 -10.203125l0 -2.203125l2.375 0l0 2.203125l-2.375 0zm0 10.203125l0 -8.984375l2.375 0l0 8.984375l-2.375 0z" fill-rule="nonzero"/><path fill="#000000" d="m842.7128 379.729l0 -12.40625l2.375 0l0 12.40625l-2.375 0zm4.81427 -10.203125l0 -2.203125l2.375 0l0 2.203125l-2.375 0zm0 10.203125l0 -8.984375l2.375 0l0 8.984375l-2.375 0zm4.720581 0l0 -12.40625l2.375 0l0 6.578125l2.796875 -3.15625l2.921875 0l-3.078125 3.28125l3.296875 5.703125l-2.5625 0l-2.265625 -4.03125l-1.109375 1.15625l0 2.875l-2.375 0zm14.93396 -2.859375l2.359375 0.390625q-0.453125 1.3125 -1.4375 2.0q-0.984375 0.671875 -2.46875 0.671875q-2.34375 0 -3.46875 -1.53125q-0.890625 -1.234375 -0.890625 -3.09375q0 -2.234375 1.171875 -3.5q1.171875 -1.265625 2.953125 -1.265625q2.0 0 3.15625 1.328125q1.171875 1.3125 1.109375 4.046875l-5.953125 0q0.03125 1.0625 0.578125 1.65625q0.546875 0.578125 1.375 0.578125q0.546875 0 0.921875 -0.296875q0.390625 -0.3125 0.59375 -0.984375zm0.125 -2.40625q-0.015625 -1.03125 -0.53125 -1.5625q-0.5 -0.546875 -1.234375 -0.546875q-0.78125 0 -1.28125 0.578125q-0.515625 0.5625 -0.5 1.53125l3.546875 0zm12.480835 5.265625l-2.375 0l0 -4.578125q0 -1.46875 -0.15625 -1.890625q-0.15625 -0.421875 -0.5 -0.65625q-0.34375 -0.25 -0.828125 -0.25q-0.609375 0 -1.109375 0.34375q-0.484375 0.34375 -0.671875 0.90625q-0.171875 0.546875 -0.171875 2.0625l0 4.0625l-2.375 0l0 -8.984375l2.203125 0l0 1.3125q1.171875 -1.515625 2.953125 -1.515625q0.796875 0 1.4375 0.28125q0.65625 0.28125 0.984375 0.734375q0.34375 0.4375 0.46875 1.0q0.140625 0.546875 0.140625 1.59375l0 5.578125zm6.522217 -8.984375l0 1.890625l-1.625 0l0 3.625q0 1.09375 0.046875 1.28125q0.046875 0.1875 0.203125 0.3125q0.171875 0.109375 0.421875 0.109375q0.328125 0 0.953125 -0.234375l0.203125 1.84375q-0.828125 0.359375 -1.875 0.359375q-0.65625 0 -1.171875 -0.21875q-0.515625 -0.21875 -0.765625 -0.546875q-0.234375 -0.34375 -0.3125 -0.9375q-0.078125 -0.40625 -0.078125 -1.671875l0 -3.921875l-1.09375 0l0 -1.890625l1.09375 0l0 -1.78125l2.375 -1.390625l0 3.171875l1.625 0zm6.475342 8.984375l0 -12.40625l2.375 0l0 12.40625l-2.375 0zm10.017456 -2.859375l2.359375 0.390625q-0.453125 1.3125 -1.4375 2.0q-0.984375 0.671875 -2.46875 0.671875q-2.34375 0 -3.46875 -1.53125q-0.890625 -1.234375 -0.890625 -3.09375q0 -2.234375 1.171875 -3.5q1.171875 -1.265625 2.953125 -1.265625q2.0 0 3.15625 1.328125q1.171875 1.3125 1.109375 4.046875l-5.953125 0q0.03125 1.0625 0.578125 1.65625q0.546875 0.578125 1.375 0.578125q0.546875 0 0.921875 -0.296875q0.390625 -0.3125 0.59375 -0.984375zm0.125 -2.40625q-0.015625 -1.03125 -0.53125 -1.5625q-0.5 -0.546875 -1.234375 -0.546875q-0.78125 0 -1.28125 0.578125q-0.515625 0.5625 -0.5 1.53125l3.546875 0zm3.46521 2.703125l2.390625 -0.359375q0.140625 0.6875 0.609375 1.046875q0.46875 0.359375 1.3125 0.359375q0.921875 0 1.375 -0.34375q0.3125 -0.234375 0.3125 -0.625q0 -0.28125 -0.15625 -0.453125q-0.1875 -0.171875 -0.796875 -0.3125q-2.875 -0.640625 -3.65625 -1.15625q-1.0625 -0.734375 -1.0625 -2.03125q0 -1.15625 0.921875 -1.953125q0.921875 -0.796875 2.859375 -0.796875q1.84375 0 2.734375 0.609375q0.90625 0.59375 1.25 1.765625l-2.25 0.421875q-0.140625 -0.53125 -0.546875 -0.8125q-0.390625 -0.28125 -1.140625 -0.28125q-0.9375 0 -1.34375 0.265625q-0.28125 0.1875 -0.28125 0.484375q0 0.25 0.25 0.4375q0.3125 0.234375 2.203125 0.671875q1.90625 0.421875 2.671875 1.046875q0.734375 0.640625 0.734375 1.765625q0 1.234375 -1.03125 2.125q-1.03125 0.890625 -3.046875 0.890625q-1.84375 0 -2.921875 -0.734375q-1.0625 -0.75 -1.390625 -2.03125z" fill-rule="nonzero"/><path fill="#000000" d="m842.6347 391.74463l2.21875 0l0 1.3125q0.4375 -0.671875 1.171875 -1.09375q0.734375 -0.421875 1.625 -0.421875q1.578125 0 2.65625 1.234375q1.09375 1.21875 1.09375 3.40625q0 2.25 -1.109375 3.5q-1.09375 1.25 -2.65625 1.25q-0.734375 0 -1.34375 -0.296875q-0.609375 -0.296875 -1.28125 -1.015625l0 4.53125l-2.375 0l0 -12.40625zm2.359375 4.34375q0 1.515625 0.59375 2.234375q0.609375 0.71875 1.46875 0.71875q0.828125 0 1.375 -0.65625q0.546875 -0.671875 0.546875 -2.1875q0 -1.40625 -0.5625 -2.09375q-0.5625 -0.6875 -1.40625 -0.6875q-0.875 0 -1.453125 0.671875q-0.5625 0.671875 -0.5625 2.0zm7.740967 0.015625q0 -1.171875 0.578125 -2.28125q0.59375 -1.109375 1.65625 -1.6875q1.078125 -0.59375 2.40625 -0.59375q2.03125 0 3.328125 1.328125q1.3125 1.3125 1.3125 3.34375q0 2.03125 -1.328125 3.375q-1.3125 1.34375 -3.296875 1.34375q-1.234375 0 -2.359375 -0.546875q-1.125 -0.5625 -1.71875 -1.640625q-0.578125 -1.09375 -0.578125 -2.640625zm2.4375 0.125q0 1.34375 0.640625 2.0625q0.640625 0.703125 1.5625 0.703125q0.9375 0 1.5625 -0.703125q0.625 -0.71875 0.625 -2.078125q0 -1.3125 -0.625 -2.015625q-0.625 -0.71875 -1.5625 -0.71875q-0.921875 0 -1.5625 0.71875q-0.640625 0.703125 -0.640625 2.03125zm7.865967 1.9375l2.390625 -0.359375q0.140625 0.6875 0.609375 1.046875q0.46875 0.359375 1.3125 0.359375q0.921875 0 1.375 -0.34375q0.3125 -0.234375 0.3125 -0.625q0 -0.28125 -0.15625 -0.453125q-0.1875 -0.171875 -0.796875 -0.3125q-2.875 -0.640625 -3.65625 -1.15625q-1.0625 -0.734375 -1.0625 -2.03125q0 -1.15625 0.921875 -1.953125q0.921875 -0.796875 2.859375 -0.796875q1.84375 0 2.734375 0.609375q0.90625 0.59375 1.25 1.765625l-2.25 0.421875q-0.140625 -0.53125 -0.546875 -0.8125q-0.390625 -0.28125 -1.140625 -0.28125q-0.9375 0 -1.34375 0.265625q-0.28125 0.1875 -0.28125 0.484375q0 0.25 0.25 0.4375q0.3125 0.234375 2.203125 0.671875q1.90625 0.421875 2.671875 1.046875q0.734375 0.640625 0.734375 1.765625q0 1.234375 -1.03125 2.125q-1.03125 0.890625 -3.046875 0.890625q-1.84375 0 -2.921875 -0.734375q-1.0625 -0.75 -1.390625 -2.03125zm14.59021 -6.421875l0 1.890625l-1.625 0l0 3.625q0 1.09375 0.046875 1.28125q0.046875 0.1875 0.203125 0.3125q0.171875 0.109375 0.421875 0.109375q0.328125 0 0.953125 -0.234375l0.203125 1.84375q-0.828125 0.359375 -1.875 0.359375q-0.65625 0 -1.171875 -0.21875q-0.515625 -0.21875 -0.765625 -0.546875q-0.234375 -0.34375 -0.3125 -0.9375q-0.078125 -0.40625 -0.078125 -1.671875l0 -3.921875l-1.09375 0l0 -1.890625l1.09375 0l0 -1.78125l2.375 -1.390625l0 3.171875l1.625 0zm0.81726074 6.421875l2.390625 -0.359375q0.140625 0.6875 0.609375 1.046875q0.46875 0.359375 1.3125 0.359375q0.921875 0 1.375 -0.34375q0.3125 -0.234375 0.3125 -0.625q0 -0.28125 -0.15625 -0.453125q-0.1875 -0.171875 -0.796875 -0.3125q-2.875 -0.640625 -3.65625 -1.15625q-1.0625 -0.734375 -1.0625 -2.03125q0 -1.15625 0.921875 -1.953125q0.921875 -0.796875 2.859375 -0.796875q1.84375 0 2.734375 0.609375q0.90625 0.59375 1.25 1.765625l-2.25 0.421875q-0.140625 -0.53125 -0.546875 -0.8125q-0.390625 -0.28125 -1.140625 -0.28125q-0.9375 0 -1.34375 0.265625q-0.28125 0.1875 -0.28125 0.484375q0 0.25 0.25 0.4375q0.3125 0.234375 2.203125 0.671875q1.90625 0.421875 2.671875 1.046875q0.734375 0.640625 0.734375 1.765625q0 1.234375 -1.03125 2.125q-1.03125 0.890625 -3.046875 0.890625q-1.84375 0 -2.921875 -0.734375q-1.0625 -0.75 -1.390625 -2.03125z" fill-rule="nonzero"/><path fill="#cfe2f3" d="m0 326.47876l31.418182 -45.08374l94.25455 0l31.418182 45.08374l-31.418182 45.08374l-94.25455 0z" fill-rule="evenodd"/><path stroke="#000000" stroke-width="1.0" stroke-linejoin="round" stroke-linecap="butt" d="m0 326.47876l31.418182 -45.08374l94.25455 0l31.418182 45.08374l-31.418182 45.08374l-94.25455 0z" fill-rule="evenodd"/><path fill="#000000" d="m44.215057 322.39877l-2.5625 0l0 -9.671875l2.375 0l0 1.375q0.609375 -0.984375 1.09375 -1.28125q0.484375 -0.3125 1.109375 -0.3125q0.875 0 1.6875 0.484375l-0.796875 2.234375q-0.640625 -0.421875 -1.203125 -0.421875q-0.53125 0 -0.90625 0.296875q-0.375 0.296875 -0.59375 1.078125q-0.203125 0.765625 -0.203125 3.234375l0 2.984375zm10.400894 -3.078125l2.546875 0.421875q-0.484375 1.40625 -1.546875 2.140625q-1.0625 0.734375 -2.65625 0.734375q-2.515625 0 -3.734375 -1.65625q-0.953125 -1.3125 -0.953125 -3.328125q0 -2.40625 1.25 -3.765625q1.265625 -1.359375 3.1875 -1.359375q2.15625 0 3.40625 1.421875q1.25 1.421875 1.1875 4.375l-6.40625 0q0.03125 1.140625 0.609375 1.78125q0.59375 0.625 1.484375 0.625q0.59375 0 1.0 -0.328125q0.421875 -0.328125 0.625 -1.0625zm0.15625 -2.59375q-0.03125 -1.109375 -0.578125 -1.6875q-0.546875 -0.578125 -1.328125 -0.578125q-0.84375 0 -1.390625 0.609375q-0.546875 0.609375 -0.53125 1.65625l3.828125 0zm-3.28125 -5.1875l1.25 -2.71875l2.875 0l-2.5 2.71875l-1.625 0zm7.000717 8.09375l2.5625 -0.390625q0.171875 0.75 0.671875 1.140625q0.5 0.390625 1.40625 0.390625q0.984375 0 1.484375 -0.375q0.34375 -0.25 0.34375 -0.671875q0 -0.296875 -0.1875 -0.484375q-0.1875 -0.1875 -0.859375 -0.34375q-3.09375 -0.6875 -3.921875 -1.25q-1.140625 -0.78125 -1.140625 -2.171875q0 -1.265625 0.984375 -2.109375q1.0 -0.859375 3.078125 -0.859375q1.984375 0 2.953125 0.65625q0.96875 0.640625 1.328125 1.90625l-2.40625 0.4375q-0.15625 -0.5625 -0.59375 -0.859375q-0.421875 -0.296875 -1.234375 -0.296875q-1.0 0 -1.4375 0.28125q-0.296875 0.203125 -0.296875 0.515625q0 0.265625 0.25 0.46875q0.34375 0.25 2.390625 0.71875q2.046875 0.453125 2.859375 1.140625q0.796875 0.671875 0.796875 1.890625q0 1.34375 -1.109375 2.296875q-1.109375 0.953125 -3.28125 0.953125q-1.984375 0 -3.140625 -0.796875q-1.140625 -0.8125 -1.5 -2.1875zm16.875717 -0.3125l2.546875 0.421875q-0.484375 1.40625 -1.546875 2.140625q-1.0625 0.734375 -2.65625 0.734375q-2.515625 0 -3.734375 -1.65625q-0.953125 -1.3125 -0.953125 -3.328125q0 -2.40625 1.25 -3.765625q1.265625 -1.359375 3.1875 -1.359375q2.15625 0 3.40625 1.421875q1.25 1.421875 1.1875 4.375l-6.40625 0q0.03125 1.140625 0.609375 1.78125q0.59375 0.625 1.484375 0.625q0.59375 0 1.0 -0.328125q0.421875 -0.328125 0.625 -1.0625zm0.15625 -2.59375q-0.03125 -1.109375 -0.578125 -1.6875q-0.546875 -0.578125 -1.328125 -0.578125q-0.84375 0 -1.390625 0.609375q-0.546875 0.609375 -0.53125 1.65625l3.828125 0zm6.531967 -1.046875l-2.328125 -0.421875q0.40625 -1.40625 1.359375 -2.078125q0.953125 -0.671875 2.84375 -0.671875q1.703125 0 2.546875 0.40625q0.84375 0.40625 1.171875 1.03125q0.34375 0.625 0.34375 2.28125l-0.015625 3.0q0 1.265625 0.109375 1.875q0.125 0.609375 0.46875 1.296875l-2.53125 0q-0.109375 -0.25 -0.25 -0.75q-0.0625 -0.234375 -0.09375 -0.3125q-0.65625 0.640625 -1.40625 0.96875q-0.734375 0.3125 -1.59375 0.3125q-1.484375 0 -2.34375 -0.8125q-0.859375 -0.8125 -0.859375 -2.046875q0 -0.828125 0.390625 -1.46875q0.390625 -0.640625 1.09375 -0.96875q0.703125 -0.34375 2.03125 -0.609375q1.796875 -0.328125 2.484375 -0.625l0 -0.25q0 -0.75 -0.359375 -1.0625q-0.359375 -0.3125 -1.375 -0.3125q-0.6875 0 -1.078125 0.28125q-0.375 0.265625 -0.609375 0.9375zm3.421875 2.078125q-0.484375 0.15625 -1.5625 0.390625q-1.0625 0.21875 -1.390625 0.4375q-0.5 0.359375 -0.5 0.90625q0 0.53125 0.40625 0.9375q0.40625 0.390625 1.015625 0.390625q0.703125 0 1.328125 -0.46875q0.46875 -0.34375 0.609375 -0.84375q0.09375 -0.328125 0.09375 -1.25l0 -0.5zm11.406967 4.640625l0 -1.453125q-0.53125 0.78125 -1.390625 1.234375q-0.859375 0.4375 -1.8125 0.4375q-0.96875 0 -1.75 -0.421875q-0.765625 -0.4375 -1.125 -1.203125q-0.34375 -0.78125 -0.34375 -2.140625l0 -6.125l2.5625 0l0 4.4375q0 2.046875 0.140625 2.515625q0.140625 0.453125 0.515625 0.71875q0.375 0.265625 0.953125 0.265625q0.65625 0 1.171875 -0.359375q0.515625 -0.359375 0.703125 -0.890625q0.203125 -0.53125 0.203125 -2.609375l0 -4.078125l2.546875 0l0 9.671875l-2.375 0zm3.8022308 0l3.484375 -4.984375l-3.34375 -4.6875l3.125 0l1.71875 2.65625l1.796875 -2.65625l3.015625 0l-3.28125 4.578125l3.578125 5.09375l-3.140625 0l-1.96875 -3.0l-1.984375 3.0l-3.0 0z" fill-rule="nonzero"/><path fill="#000000" d="m40.855682 341.63315l2.5625 -0.390625q0.171875 0.75 0.671875 1.140625q0.5 0.390625 1.40625 0.390625q0.984375 0 1.484375 -0.375q0.34375 -0.25 0.34375 -0.671875q0 -0.296875 -0.1875 -0.484375q-0.1875 -0.1875 -0.859375 -0.34375q-3.09375 -0.6875 -3.921875 -1.25q-1.140625 -0.78125 -1.140625 -2.171875q0 -1.265625 0.984375 -2.109375q1.0 -0.859375 3.078125 -0.859375q1.984375 0 2.953125 0.65625q0.96875 0.640625 1.328125 1.90625l-2.40625 0.4375q-0.15625 -0.5625 -0.59375 -0.859375q-0.421875 -0.296875 -1.234375 -0.296875q-1.0 0 -1.4375 0.28125q-0.296875 0.203125 -0.296875 0.515625q0 0.265625 0.25 0.46875q0.34375 0.25 2.390625 0.71875q2.046875 0.453125 2.859375 1.140625q0.796875 0.671875 0.796875 1.890625q0 1.34375 -1.109375 2.296875q-1.109375 0.953125 -3.28125 0.953125q-1.984375 0 -3.140625 -0.796875q-1.140625 -0.8125 -1.5 -2.1875zm10.688217 -2.203125q0 -1.28125 0.625 -2.46875q0.625 -1.203125 1.78125 -1.828125q1.15625 -0.625 2.578125 -0.625q2.1875 0 3.59375 1.421875q1.40625 1.421875 1.40625 3.609375q0 2.1875 -1.421875 3.640625q-1.421875 1.4375 -3.5625 1.4375q-1.328125 0 -2.546875 -0.59375q-1.203125 -0.609375 -1.828125 -1.765625q-0.625 -1.171875 -0.625 -2.828125zm2.625 0.125q0 1.453125 0.671875 2.21875q0.6875 0.75 1.6875 0.75q1.0 0 1.671875 -0.75q0.6875 -0.765625 0.6875 -2.234375q0 -1.421875 -0.6875 -2.1875q-0.671875 -0.765625 -1.671875 -0.765625q-1.0 0 -1.6875 0.765625q-0.671875 0.765625 -0.671875 2.203125zm17.80223 -1.96875l-2.53125 0.453125q-0.125 -0.75 -0.578125 -1.125q-0.453125 -0.390625 -1.171875 -0.390625q-0.953125 0 -1.53125 0.65625q-0.5625 0.65625 -0.5625 2.203125q0 1.734375 0.578125 2.4375q0.578125 0.703125 1.546875 0.703125q0.734375 0 1.203125 -0.40625q0.46875 -0.421875 0.65625 -1.421875l2.515625 0.421875q-0.390625 1.734375 -1.515625 2.625q-1.109375 0.875 -2.96875 0.875q-2.125 0 -3.390625 -1.328125q-1.25 -1.34375 -1.25 -3.71875q0 -2.390625 1.265625 -3.71875q1.265625 -1.34375 3.421875 -1.34375q1.765625 0 2.796875 0.765625q1.046875 0.75 1.515625 2.3125zm1.9382172 -4.171875l0 -2.375l2.5625 0l0 2.375l-2.5625 0zm0 10.984375l0 -9.671875l2.5625 0l0 9.671875l-2.5625 0zm7.089554 -6.71875l-2.328125 -0.421875q0.40625 -1.40625 1.359375 -2.078125q0.953125 -0.671875 2.84375 -0.671875q1.703125 0 2.546875 0.40625q0.84375 0.40625 1.171875 1.03125q0.34375 0.625 0.34375 2.28125l-0.015625 3.0q0 1.265625 0.109375 1.875q0.125 0.609375 0.46875 1.296875l-2.53125 0q-0.109375 -0.25 -0.25 -0.75q-0.0625 -0.234375 -0.09375 -0.3125q-0.65625 0.640625 -1.40625 0.96875q-0.734375 0.3125 -1.59375 0.3125q-1.484375 0 -2.34375 -0.8125q-0.859375 -0.8125 -0.859375 -2.046875q0 -0.828125 0.390625 -1.46875q0.390625 -0.640625 1.09375 -0.96875q0.703125 -0.34375 2.03125 -0.609375q1.796875 -0.328125 2.484375 -0.625l0 -0.25q0 -0.75 -0.359375 -1.0625q-0.359375 -0.3125 -1.375 -0.3125q-0.6875 0 -1.078125 0.28125q-0.375 0.265625 -0.609375 0.9375zm3.421875 2.078125q-0.484375 0.15625 -1.5625 0.390625q-1.0625 0.21875 -1.390625 0.4375q-0.5 0.359375 -0.5 0.90625q0 0.53125 0.40625 0.9375q0.40625 0.390625 1.015625 0.390625q0.703125 0 1.328125 -0.46875q0.46875 -0.34375 0.609375 -0.84375q0.09375 -0.328125 0.09375 -1.25l0 -0.5zm11.406967 4.640625l0 -1.453125q-0.53125 0.78125 -1.390625 1.234375q-0.859375 0.4375 -1.8125 0.4375q-0.96875 0 -1.75 -0.421875q-0.765625 -0.4375 -1.125 -1.203125q-0.34375 -0.78125 -0.34375 -2.140625l0 -6.125l2.5625 0l0 4.4375q0 2.046875 0.140625 2.515625q0.140625 0.453125 0.515625 0.71875q0.375 0.265625 0.953125 0.265625q0.65625 0 1.171875 -0.359375q0.515625 -0.359375 0.703125 -0.890625q0.203125 -0.53125 0.203125 -2.609375l0 -4.078125l2.546875 0l0 9.671875l-2.375 0zm3.8022308 0l3.484375 -4.984375l-3.34375 -4.6875l3.125 0l1.71875 2.65625l1.796875 -2.65625l3.015625 0l-3.28125 4.578125l3.578125 5.09375l-3.140625 0l-1.96875 -3.0l-1.984375 3.0l-3.0 0z" fill-rule="nonzero"/><path fill="#000000" fill-opacity="0.0" d="m160.78477 541.43304l120.25197 0l0 64.629944l-120.25197 0z" fill-rule="evenodd"/><path fill="#000000" d="m170.97227 568.3531l0 -13.359375l1.640625 0l0 13.359375l-1.640625 0z" fill-rule="nonzero"/><path fill="#000000" d="m180.8671 565.27496l2.546875 0.421875q-0.484375 1.40625 -1.546875 2.140625q-1.0625 0.734375 -2.65625 0.734375q-2.515625 0 -3.734375 -1.65625q-0.953125 -1.3125 -0.953125 -3.328125q0 -2.40625 1.25 -3.765625q1.265625 -1.359375 3.1875 -1.359375q2.15625 0 3.40625 1.421875q1.25 1.421875 1.1875 4.375l-6.40625 0q0.03125 1.140625 0.609375 1.78125q0.59375 0.625 1.484375 0.625q0.59375 0 1.0 -0.328125q0.421875 -0.328125 0.625 -1.0625zm0.15625 -2.59375q-0.03125 -1.109375 -0.578125 -1.6875q-0.546875 -0.578125 -1.328125 -0.578125q-0.84375 0 -1.390625 0.609375q-0.546875 0.609375 -0.53125 1.65625l3.828125 0zm6.531967 -1.046875l-2.328125 -0.421875q0.40625 -1.40625 1.359375 -2.078125q0.953125 -0.671875 2.84375 -0.671875q1.703125 0 2.546875 0.40625q0.84375 0.40625 1.171875 1.03125q0.34375 0.625 0.34375 2.28125l-0.015625 3.0q0 1.265625 0.109375 1.875q0.125 0.609375 0.46875 1.296875l-2.53125 0q-0.109375 -0.25 -0.25 -0.75q-0.0625 -0.234375 -0.09375 -0.3125q-0.65625 0.640625 -1.40625 0.96875q-0.734375 0.3125 -1.59375 0.3125q-1.484375 0 -2.34375 -0.8125q-0.859375 -0.8125 -0.859375 -2.046875q0 -0.828125 0.390625 -1.46875q0.390625 -0.640625 1.09375 -0.96875q0.703125 -0.34375 2.03125 -0.609375q1.796875 -0.328125 2.484375 -0.625l0 -0.25q0 -0.75 -0.359375 -1.0625q-0.359375 -0.3125 -1.375 -0.3125q-0.6875 0 -1.078125 0.28125q-0.375 0.265625 -0.609375 0.9375zm3.421875 2.078125q-0.484375 0.15625 -1.5625 0.390625q-1.0625 0.21875 -1.390625 0.4375q-0.5 0.359375 -0.5 0.90625q0 0.53125 0.40625 0.9375q0.40625 0.390625 1.015625 0.390625q0.703125 0 1.328125 -0.46875q0.46875 -0.34375 0.609375 -0.84375q0.09375 -0.328125 0.09375 -1.25l0 -0.5zm13.922592 4.640625l-2.390625 0l0 -1.421875q-0.59375 0.828125 -1.40625 1.234375q-0.796875 0.40625 -1.609375 0.40625q-1.671875 0 -2.859375 -1.34375q-1.1875 -1.34375 -1.1875 -3.75q0 -2.453125 1.15625 -3.734375q1.15625 -1.28125 2.921875 -1.28125q1.625 0 2.8125 1.34375l0 -4.8125l2.5625 0l0 13.359375zm-6.84375 -5.046875q0 1.546875 0.4375 2.234375q0.609375 1.015625 1.71875 1.015625q0.890625 0 1.5 -0.75q0.625 -0.765625 0.625 -2.25q0 -1.671875 -0.609375 -2.40625q-0.59375 -0.734375 -1.53125 -0.734375q-0.90625 0 -1.53125 0.734375q-0.609375 0.71875 -0.609375 2.15625zm14.958481 1.96875l2.546875 0.421875q-0.484375 1.40625 -1.546875 2.140625q-1.0625 0.734375 -2.65625 0.734375q-2.515625 0 -3.734375 -1.65625q-0.953125 -1.3125 -0.953125 -3.328125q0 -2.40625 1.25 -3.765625q1.265625 -1.359375 3.1875 -1.359375q2.15625 0 3.40625 1.421875q1.25 1.421875 1.1875 4.375l-6.40625 0q0.03125 1.140625 0.609375 1.78125q0.59375 0.625 1.484375 0.625q0.59375 0 1.0 -0.328125q0.421875 -0.328125 0.625 -1.0625zm0.15625 -2.59375q-0.03125 -1.109375 -0.578125 -1.6875q-0.546875 -0.578125 -1.328125 -0.578125q-0.84375 0 -1.390625 0.609375q-0.546875 0.609375 -0.53125 1.65625l3.828125 0zm7.078842 5.671875l-2.5625 0l0 -9.671875l2.375 0l0 1.375q0.609375 -0.984375 1.09375 -1.28125q0.484375 -0.3125 1.109375 -0.3125q0.875 0 1.6875 0.484375l-0.796875 2.234375q-0.640625 -0.421875 -1.203125 -0.421875q-0.53125 0 -0.90625 0.296875q-0.375 0.296875 -0.59375 1.078125q-0.203125 0.765625 -0.203125 3.234375l0 2.984375zm3.9008942 -2.765625l2.5625 -0.390625q0.171875 0.75 0.671875 1.140625q0.5 0.390625 1.40625 0.390625q0.984375 0 1.484375 -0.375q0.34375 -0.25 0.34375 -0.671875q0 -0.296875 -0.1875 -0.484375q-0.1875 -0.1875 -0.859375 -0.34375q-3.09375 -0.6875 -3.921875 -1.25q-1.140625 -0.78125 -1.140625 -2.171875q0 -1.265625 0.984375 -2.109375q1.0 -0.859375 3.078125 -0.859375q1.984375 0 2.953125 0.65625q0.96875 0.640625 1.328125 1.90625l-2.40625 0.4375q-0.15625 -0.5625 -0.59375 -0.859375q-0.421875 -0.296875 -1.234375 -0.296875q-1.0 0 -1.4375 0.28125q-0.296875 0.203125 -0.296875 0.515625q0 0.265625 0.25 0.46875q0.34375 0.25 2.390625 0.71875q2.046875 0.453125 2.859375 1.140625q0.796875 0.671875 0.796875 1.890625q0 1.34375 -1.109375 2.296875q-1.109375 0.953125 -3.28125 0.953125q-1.984375 0 -3.140625 -0.796875q-1.140625 -0.8125 -1.5 -2.1875z" fill-rule="nonzero"/><path fill="#000000" d="m171.0504 581.0812l2.390625 0l0 1.421875q0.46875 -0.734375 1.25 -1.1875q0.796875 -0.453125 1.765625 -0.453125q1.6875 0 2.859375 1.328125q1.171875 1.3125 1.171875 3.671875q0 2.421875 -1.1875 3.765625q-1.1875 1.34375 -2.859375 1.34375q-0.8125 0 -1.46875 -0.3125q-0.640625 -0.328125 -1.359375 -1.09375l0 4.875l-2.5625 0l0 -13.359375zm2.53125 4.671875q0 1.625 0.640625 2.40625q0.65625 0.78125 1.578125 0.78125q0.90625 0 1.484375 -0.71875q0.59375 -0.71875 0.59375 -2.34375q0 -1.515625 -0.609375 -2.25q-0.609375 -0.75 -1.515625 -0.75q-0.9375 0 -1.5625 0.734375q-0.609375 0.71875 -0.609375 2.140625zm8.349106 0.03125q0 -1.28125 0.625 -2.46875q0.625 -1.203125 1.78125 -1.828125q1.15625 -0.625 2.578125 -0.625q2.1875 0 3.59375 1.421875q1.40625 1.421875 1.40625 3.609375q0 2.1875 -1.421875 3.640625q-1.421875 1.4375 -3.5625 1.4375q-1.328125 0 -2.546875 -0.59375q-1.203125 -0.609375 -1.828125 -1.765625q-0.625 -1.171875 -0.625 -2.828125zm2.625 0.125q0 1.453125 0.671875 2.21875q0.6875 0.75 1.6875 0.75q1.0 0 1.671875 -0.75q0.6875 -0.765625 0.6875 -2.234375q0 -1.421875 -0.6875 -2.1875q-0.671875 -0.765625 -1.671875 -0.765625q-1.0 0 -1.6875 0.765625q-0.671875 0.765625 -0.671875 2.203125zm9.364731 4.84375l0 -13.359375l2.5625 0l0 13.359375l-2.5625 0zm5.183304 -10.984375l0 -2.375l2.5625 0l0 2.375l-2.5625 0zm0 10.984375l0 -9.671875l2.5625 0l0 9.671875l-2.5625 0zm9.620804 -9.671875l0 2.03125l-1.75 0l0 3.90625q0 1.1875 0.046875 1.390625q0.046875 0.1875 0.21875 0.3125q0.1875 0.125 0.4375 0.125q0.359375 0 1.03125 -0.25l0.21875 2.0q-0.890625 0.375 -2.015625 0.375q-0.703125 0 -1.265625 -0.234375q-0.546875 -0.234375 -0.8125 -0.59375q-0.25 -0.375 -0.34375 -1.0q-0.09375 -0.453125 -0.09375 -1.8125l0 -4.21875l-1.171875 0l0 -2.03125l1.171875 0l0 -1.921875l2.578125 -1.5l0 3.421875l1.75 0zm1.775177 -1.3125l0 -2.375l2.5625 0l0 2.375l-2.5625 0zm0 10.984375l0 -9.671875l2.5625 0l0 9.671875l-2.5625 0zm11.495804 3.6875l0 -4.875q-0.5 0.65625 -1.25 1.03125q-0.734375 0.375 -1.609375 0.375q-1.640625 0 -2.703125 -1.234375q-1.265625 -1.453125 -1.265625 -3.9375q0 -2.328125 1.171875 -3.625q1.1875 -1.3125 2.9375 -1.3125q0.96875 0 1.671875 0.40625q0.703125 0.40625 1.25 1.234375l0 -1.421875l2.359375 0l0 13.359375l-2.5625 0zm0.09375 -8.640625q0 -1.484375 -0.609375 -2.203125q-0.609375 -0.734375 -1.515625 -0.734375q-0.9375 0 -1.5625 0.75q-0.625 0.734375 -0.625 2.328125q0 1.59375 0.59375 2.3125q0.609375 0.703125 1.5 0.703125q0.875 0 1.546875 -0.796875q0.671875 -0.796875 0.671875 -2.359375zm11.349106 4.953125l0 -1.453125q-0.53125 0.78125 -1.390625 1.234375q-0.859375 0.4375 -1.8125 0.4375q-0.96875 0 -1.75 -0.421875q-0.765625 -0.4375 -1.125 -1.203125q-0.34375 -0.78125 -0.34375 -2.140625l0 -6.125l2.5625 0l0 4.4375q0 2.046875 0.140625 2.515625q0.140625 0.453125 0.515625 0.71875q0.375 0.265625 0.953125 0.265625q0.65625 0 1.171875 -0.359375q0.515625 -0.359375 0.703125 -0.890625q0.203125 -0.53125 0.203125 -2.609375l0 -4.078125l2.546875 0l0 9.671875l-2.375 0zm10.630356 -3.078125l2.546875 0.421875q-0.484375 1.40625 -1.546875 2.140625q-1.0625 0.734375 -2.65625 0.734375q-2.515625 0 -3.734375 -1.65625q-0.953125 -1.3125 -0.953125 -3.328125q0 -2.40625 1.25 -3.765625q1.265625 -1.359375 3.1875 -1.359375q2.15625 0 3.40625 1.421875q1.25 1.421875 1.1875 4.375l-6.40625 0q0.03125 1.140625 0.609375 1.78125q0.59375 0.625 1.484375 0.625q0.59375 0 1.0 -0.328125q0.421875 -0.328125 0.625 -1.0625zm0.15625 -2.59375q-0.03125 -1.109375 -0.578125 -1.6875q-0.546875 -0.578125 -1.328125 -0.578125q-0.84375 0 -1.390625 0.609375q-0.546875 0.609375 -0.53125 1.65625l3.828125 0zm3.7194672 2.90625l2.5625 -0.390625q0.171875 0.75 0.671875 1.140625q0.5 0.390625 1.40625 0.390625q0.984375 0 1.484375 -0.375q0.34375 -0.25 0.34375 -0.671875q0 -0.296875 -0.1875 -0.484375q-0.1875 -0.1875 -0.859375 -0.34375q-3.09375 -0.6875 -3.921875 -1.25q-1.140625 -0.78125 -1.140625 -2.171875q0 -1.265625 0.984375 -2.109375q1.0 -0.859375 3.078125 -0.859375q1.984375 0 2.953125 0.65625q0.96876526 0.640625 1.3281403 1.90625l-2.4062653 0.4375q-0.15625 -0.5625 -0.59375 -0.859375q-0.421875 -0.296875 -1.234375 -0.296875q-1.0 0 -1.4375 0.28125q-0.296875 0.203125 -0.296875 0.515625q0 0.265625 0.25 0.46875q0.34375 0.25 2.390625 0.71875q2.046875 0.453125 2.8593903 1.140625q0.796875 0.671875 0.796875 1.890625q0 1.34375 -1.1093903 2.296875q-1.109375 0.953125 -3.28125 0.953125q-1.984375 0 -3.140625 -0.796875q-1.140625 -0.8125 -1.5 -2.1875z" fill-rule="nonzero"/><path fill="#000000" fill-opacity="0.0" d="m312.76642 448.90552l143.18109 0l0 87.27557l-143.18109 0z" fill-rule="evenodd"/><path fill="#000000" d="m331.54767 469.013l-2.53125 0.453125q-0.125 -0.75 -0.578125 -1.125q-0.453125 -0.390625 -1.171875 -0.390625q-0.953125 0 -1.53125 0.65625q-0.5625 0.65625 -0.5625 2.203125q0 1.734375 0.578125 2.4375q0.578125 0.703125 1.546875 0.703125q0.734375 0 1.203125 -0.40625q0.46875 -0.421875 0.65625 -1.421875l2.515625 0.421875q-0.390625 1.734375 -1.515625 2.625q-1.109375 0.875 -2.96875 0.875q-2.125 0 -3.390625 -1.328125q-1.25 -1.34375 -1.25 -3.71875q0 -2.390625 1.265625 -3.71875q1.265625 -1.34375 3.421875 -1.34375q1.765625 0 2.796875 0.765625q1.046875 0.75 1.515625 2.3125zm7.531952 3.734375l2.546875 0.421875q-0.484375 1.40625 -1.546875 2.140625q-1.0625 0.734375 -2.65625 0.734375q-2.515625 0 -3.734375 -1.65625q-0.953125 -1.3125 -0.953125 -3.328125q0 -2.40625 1.25 -3.765625q1.265625 -1.359375 3.1875 -1.359375q2.15625 0 3.40625 1.421875q1.25 1.421875 1.1875 4.375l-6.40625 0q0.03125 1.140625 0.609375 1.78125q0.59375 0.625 1.484375 0.625q0.59375 0 1.0 -0.328125q0.421875 -0.328125 0.625 -1.0625zm0.15625 -2.59375q-0.03125 -1.109375 -0.578125 -1.6875q-0.546875 -0.578125 -1.328125 -0.578125q-0.84375 0 -1.390625 0.609375q-0.546875 0.609375 -0.53125 1.65625l3.828125 0zm10.985107 5.671875l0 -1.453125q-0.53125 0.78125 -1.390625 1.234375q-0.859375 0.4375 -1.8125 0.4375q-0.96875 0 -1.75 -0.421875q-0.765625 -0.4375 -1.125 -1.203125q-0.34375 -0.78125 -0.34375 -2.140625l0 -6.125l2.5625 0l0 4.4375q0 2.046875 0.140625 2.515625q0.140625 0.453125 0.515625 0.71875q0.375 0.265625 0.953125 0.265625q0.65625 0 1.171875 -0.359375q0.515625 -0.359375 0.703125 -0.890625q0.203125 -0.53125 0.203125 -2.609375l0 -4.078125l2.546875 0l0 9.671875l-2.375 0zm3.8022156 0l3.484375 -4.984375l-3.34375 -4.6875l3.125 0l1.71875 2.65625l1.796875 -2.65625l3.015625 0l-3.28125 4.578125l3.578125 5.09375l-3.140625 0l-1.96875 -3.0l-1.984375 3.0l-3.0 0zm23.105896 3.6875l0 -4.875q-0.5 0.65625 -1.25 1.03125q-0.734375 0.375 -1.609375 0.375q-1.640625 0 -2.703125 -1.234375q-1.265625 -1.453125 -1.265625 -3.9375q0 -2.328125 1.171875 -3.625q1.1875 -1.3125 2.9375 -1.3125q0.96875 0 1.671875 0.40625q0.703125 0.40625 1.25 1.234375l0 -1.421875l2.359375 0l0 13.359375l-2.5625 0zm0.09375 -8.640625q0 -1.484375 -0.609375 -2.203125q-0.609375 -0.734375 -1.515625 -0.734375q-0.9375 0 -1.5625 0.75q-0.625 0.734375 -0.625 2.328125q0 1.59375 0.59375 2.3125q0.609375 0.703125 1.5 0.703125q0.875 0 1.546875 -0.796875q0.671875 -0.796875 0.671875 -2.359375zm11.349121 4.953125l0 -1.453125q-0.53125 0.78125 -1.390625 1.234375q-0.859375 0.4375 -1.8125 0.4375q-0.96875 0 -1.75 -0.421875q-0.765625 -0.4375 -1.125 -1.203125q-0.34375 -0.78125 -0.34375 -2.140625l0 -6.125l2.5625 0l0 4.4375q0 2.046875 0.140625 2.515625q0.140625 0.453125 0.515625 0.71875q0.375 0.265625 0.953125 0.265625q0.65625 0 1.171875 -0.359375q0.515625 -0.359375 0.703125 -0.890625q0.203125 -0.53125 0.203125 -2.609375l0 -4.078125l2.546875 0l0 9.671875l-2.375 0zm5.0365906 -10.984375l0 -2.375l2.5625 0l0 2.375l-2.5625 0zm0 10.984375l0 -9.671875l2.5625 0l0 9.671875l-2.5625 0z" fill-rule="nonzero"/><path fill="#000000" d="m323.03204 488.55362l2.390625 0l0 1.421875q0.46875 -0.734375 1.25 -1.1875q0.796875 -0.453125 1.765625 -0.453125q1.6875 0 2.859375 1.328125q1.171875 1.3125 1.171875 3.671875q0 2.421875 -1.1875 3.765625q-1.1875 1.34375 -2.859375 1.34375q-0.8125 0 -1.46875 -0.3125q-0.640625 -0.328125 -1.359375 -1.09375l0 4.875l-2.5625 0l0 -13.359375zm2.53125 4.671875q0 1.625 0.640625 2.40625q0.65625 0.78125 1.578125 0.78125q0.90625 0 1.484375 -0.71875q0.59375 -0.71875 0.59375 -2.34375q0 -1.515625 -0.609375 -2.25q-0.609375 -0.75 -1.515625 -0.75q-0.9375 0 -1.5625 0.734375q-0.609375 0.71875 -0.609375 2.140625zm8.349091 0.03125q0 -1.28125 0.625 -2.46875q0.625 -1.203125 1.78125 -1.828125q1.15625 -0.625 2.578125 -0.625q2.1875 0 3.59375 1.421875q1.40625 1.421875 1.40625 3.609375q0 2.1875 -1.421875 3.640625q-1.421875 1.4375 -3.5625 1.4375q-1.328125 0 -2.546875 -0.59375q-1.203125 -0.609375 -1.828125 -1.765625q-0.625 -1.171875 -0.625 -2.828125zm2.625 0.125q0 1.453125 0.671875 2.21875q0.6875 0.75 1.6875 0.75q1.0 0 1.671875 -0.75q0.6875 -0.765625 0.6875 -2.234375q0 -1.421875 -0.6875 -2.1875q-0.671875 -0.765625 -1.671875 -0.765625q-1.0 0 -1.6875 0.765625q-0.671875 0.765625 -0.671875 2.203125zm8.458496 2.078125l2.5625 -0.390625q0.171875 0.75 0.671875 1.140625q0.5 0.390625 1.40625 0.390625q0.984375 0 1.484375 -0.375q0.34375 -0.25 0.34375 -0.671875q0 -0.296875 -0.1875 -0.484375q-0.1875 -0.1875 -0.859375 -0.34375q-3.09375 -0.6875 -3.921875 -1.25q-1.140625 -0.78125 -1.140625 -2.171875q0 -1.265625 0.984375 -2.109375q1.0 -0.859375 3.078125 -0.859375q1.984375 0 2.953125 0.65625q0.96875 0.640625 1.328125 1.90625l-2.40625 0.4375q-0.15625 -0.5625 -0.59375 -0.859375q-0.421875 -0.296875 -1.234375 -0.296875q-1.0 0 -1.4375 0.28125q-0.296875 0.203125 -0.296875 0.515625q0 0.265625 0.25 0.46875q0.34375 0.25 2.390625 0.71875q2.046875 0.453125 2.859375 1.140625q0.796875 0.671875 0.796875 1.890625q0 1.34375 -1.109375 2.296875q-1.109375 0.953125 -3.28125 0.953125q-1.984375 0 -3.140625 -0.796875q-1.140625 -0.8125 -1.5 -2.1875zm15.719452 -6.90625l0 2.03125l-1.75 0l0 3.90625q0 1.1875 0.046875 1.390625q0.046875 0.1875 0.21875 0.3125q0.1875 0.125 0.4375 0.125q0.359375 0 1.03125 -0.25l0.21875 2.0q-0.890625 0.375 -2.015625 0.375q-0.703125 0 -1.265625 -0.234375q-0.546875 -0.234375 -0.8125 -0.59375q-0.25 -0.375 -0.34375 -1.0q-0.09375 -0.453125 -0.09375 -1.8125l0 -4.21875l-1.171875 0l0 -2.03125l1.171875 0l0 -1.921875l2.578125 -1.5l0 3.421875l1.75 0zm7.368927 6.59375l2.546875 0.421875q-0.484375 1.40625 -1.546875 2.140625q-1.0625 0.734375 -2.65625 0.734375q-2.515625 0 -3.734375 -1.65625q-0.953125 -1.3125 -0.953125 -3.328125q0 -2.40625 1.25 -3.765625q1.265625 -1.359375 3.1875 -1.359375q2.15625 0 3.40625 1.421875q1.25 1.421875 1.1875 4.375l-6.40625 0q0.03125 1.140625 0.609375 1.78125q0.59375 0.625 1.484375 0.625q0.59375 0 1.0 -0.328125q0.421875 -0.328125 0.625 -1.0625zm0.15625 -2.59375q-0.03125 -1.109375 -0.578125 -1.6875q-0.546875 -0.578125 -1.328125 -0.578125q-0.84375 0 -1.390625 0.609375q-0.546875 0.609375 -0.53125 1.65625l3.828125 0zm13.422607 5.671875l-2.5625 0l0 -4.9375q0 -1.5625 -0.171875 -2.015625q-0.15625 -0.46875 -0.53125 -0.71875q-0.359375 -0.265625 -0.875 -0.265625q-0.671875 0 -1.203125 0.375q-0.53125 0.359375 -0.734375 0.96875q-0.1875 0.59375 -0.1875 2.21875l0 4.375l-2.546875 0l0 -9.671875l2.375 0l0 1.421875q1.265625 -1.640625 3.1875 -1.640625q0.84375 0 1.546875 0.3125q0.703125 0.296875 1.0625 0.78125q0.359375 0.46875 0.5 1.078125q0.140625 0.59375 0.140625 1.703125l0 6.015625zm7.0365906 -9.671875l0 2.03125l-1.75 0l0 3.90625q0 1.1875 0.046875 1.390625q0.046875 0.1875 0.21875 0.3125q0.1875 0.125 0.4375 0.125q0.359375 0 1.03125 -0.25l0.21875 2.0q-0.890625 0.375 -2.015625 0.375q-0.703125 0 -1.265625 -0.234375q-0.546875 -0.234375 -0.8125 -0.59375q-0.25 -0.375 -0.34375 -1.0q-0.09375 -0.453125 -0.09375 -1.8125l0 -4.21875l-1.171875 0l0 -2.03125l1.171875 0l0 -1.921875l2.578125 -1.5l0 3.421875l1.75 0zm6.958496 9.671875l0 -13.359375l2.5625 0l0 13.359375l-2.5625 0zm10.777039 -3.078125l2.546875 0.421875q-0.484375 1.40625 -1.546875 2.140625q-1.0625 0.734375 -2.65625 0.734375q-2.515625 0 -3.734375 -1.65625q-0.953125 -1.3125 -0.953125 -3.328125q0 -2.40625 1.25 -3.765625q1.265625 -1.359375 3.1875 -1.359375q2.15625 0 3.40625 1.421875q1.25 1.421875 1.1875 4.375l-6.40625 0q0.03125 1.140625 0.609375 1.78125q0.59375 0.625 1.484375 0.625q0.59375 0 1.0 -0.328125q0.421875 -0.328125 0.625 -1.0625zm0.15625 -2.59375q-0.03125 -1.109375 -0.578125 -1.6875q-0.546875 -0.578125 -1.328125 -0.578125q-0.84375 0 -1.390625 0.609375q-0.546875 0.609375 -0.53125 1.65625l3.828125 0zm3.7194824 2.90625l2.5625 -0.390625q0.171875 0.75 0.671875 1.140625q0.5 0.390625 1.40625 0.390625q0.984375 0 1.484375 -0.375q0.34375 -0.25 0.34375 -0.671875q0 -0.296875 -0.1875 -0.484375q-0.1875 -0.1875 -0.859375 -0.34375q-3.09375 -0.6875 -3.921875 -1.25q-1.140625 -0.78125 -1.140625 -2.171875q0 -1.265625 0.984375 -2.109375q1.0 -0.859375 3.078125 -0.859375q1.984375 0 2.953125 0.65625q0.96875 0.640625 1.328125 1.90625l-2.40625 0.4375q-0.15625 -0.5625 -0.59375 -0.859375q-0.421875 -0.296875 -1.234375 -0.296875q-1.0 0 -1.4375 0.28125q-0.296875 0.203125 -0.296875 0.515625q0 0.265625 0.25 0.46875q0.34375 0.25 2.390625 0.71875q2.046875 0.453125 2.859375 1.140625q0.796875 0.671875 0.796875 1.890625q0 1.34375 -1.109375 2.296875q-1.109375 0.953125 -3.28125 0.953125q-1.984375 0 -3.140625 -0.796875q-1.140625 -0.8125 -1.5 -2.1875z" fill-rule="nonzero"/><path fill="#000000" d="m322.20392 517.85986l2.5625 -0.390625q0.171875 0.75 0.671875 1.140625q0.5 0.390625 1.40625 0.390625q0.984375 0 1.484375 -0.375q0.34375 -0.25 0.34375 -0.671875q0 -0.296875 -0.1875 -0.484375q-0.1875 -0.1875 -0.859375 -0.34375q-3.09375 -0.6875 -3.921875 -1.25q-1.140625 -0.78125 -1.140625 -2.171875q0 -1.265625 0.984375 -2.1093445q1.0 -0.859375 3.078125 -0.859375q1.984375 0 2.953125 0.65625q0.96875 0.6405945 1.328125 1.9062195l-2.40625 0.4375q-0.15625 -0.5625 -0.59375 -0.859375q-0.421875 -0.296875 -1.234375 -0.296875q-1.0 0 -1.4375 0.28125q-0.296875 0.203125 -0.296875 0.515625q0 0.265625 0.25 0.46875q0.34375 0.25 2.390625 0.71875q2.046875 0.453125 2.859375 1.140625q0.796875 0.671875 0.796875 1.890625q0 1.34375 -1.109375 2.296875q-1.109375 0.953125 -3.28125 0.953125q-1.984375 0 -3.140625 -0.796875q-1.140625 -0.8125 -1.5 -2.1875zm15.719452 -6.9062195l0 2.0312195l-1.75 0l0 3.90625q0 1.1875 0.046875 1.390625q0.046875 0.1875 0.21875 0.3125q0.1875 0.125 0.4375 0.125q0.359375 0 1.03125 -0.25l0.21875 2.0q-0.890625 0.375 -2.015625 0.375q-0.703125 0 -1.265625 -0.234375q-0.546875 -0.234375 -0.8125 -0.59375q-0.25 -0.375 -0.34375 -1.0q-0.09375 -0.453125 -0.09375 -1.8125l0 -4.21875l-1.171875 0l0 -2.0312195l1.171875 0l0 -1.921875l2.578125 -1.5l0 3.421875l1.75 0zm3.681427 2.9530945l-2.328125 -0.421875q0.40625 -1.40625 1.359375 -2.0780945q0.953125 -0.671875 2.84375 -0.671875q1.703125 0 2.546875 0.40625q0.84375 0.40625 1.171875 1.0312195q0.34375 0.625 0.34375 2.28125l-0.015625 3.0q0 1.265625 0.109375 1.875q0.125 0.609375 0.46875 1.296875l-2.53125 0q-0.109375 -0.25 -0.25 -0.75q-0.0625 -0.234375 -0.09375 -0.3125q-0.65625 0.640625 -1.40625 0.96875q-0.734375 0.3125 -1.59375 0.3125q-1.484375 0 -2.34375 -0.8125q-0.859375 -0.8125 -0.859375 -2.046875q0 -0.828125 0.390625 -1.46875q0.390625 -0.640625 1.09375 -0.96875q0.703125 -0.34375 2.03125 -0.609375q1.796875 -0.328125 2.484375 -0.625l0 -0.25q0 -0.75 -0.359375 -1.0625q-0.359375 -0.3125 -1.375 -0.3125q-0.6875 0 -1.078125 0.28125q-0.375 0.265625 -0.609375 0.9375zm3.421875 2.078125q-0.484375 0.15625 -1.5625 0.390625q-1.0625 0.21875 -1.390625 0.4375q-0.5 0.359375 -0.5 0.90625q0 0.53125 0.40625 0.9375q0.40625 0.390625 1.015625 0.390625q0.703125 0 1.328125 -0.46875q0.46875 -0.34375 0.609375 -0.84375q0.09375 -0.328125 0.09375 -1.25l0 -0.5zm9.485107 -5.0312195l0 2.0312195l-1.75 0l0 3.90625q0 1.1875 0.046875 1.390625q0.046875 0.1875 0.21875 0.3125q0.1875 0.125 0.4375 0.125q0.359375 0 1.03125 -0.25l0.21875 2.0q-0.890625 0.375 -2.015625 0.375q-0.703125 0 -1.265625 -0.234375q-0.546875 -0.234375 -0.8125 -0.59375q-0.25 -0.375 -0.34375 -1.0q-0.09375 -0.453125 -0.09375 -1.8125l0 -4.21875l-1.171875 0l0 -2.0312195l1.171875 0l0 -1.921875l2.578125 -1.5l0 3.421875l1.75 0zm8.134552 9.6718445l0 -1.453125q-0.53125 0.78125 -1.390625 1.234375q-0.859375 0.4375 -1.8125 0.4375q-0.96875 0 -1.75 -0.421875q-0.765625 -0.4375 -1.125 -1.203125q-0.34375 -0.78125 -0.34375 -2.140625l0 -6.1249695l2.5625 0l0 4.4374695q0 2.046875 0.140625 2.515625q0.140625 0.453125 0.515625 0.71875q0.375 0.265625 0.953125 0.265625q0.65625 0 1.171875 -0.359375q0.515625 -0.359375 0.703125 -0.890625q0.203125 -0.53125 0.203125 -2.609375l0 -4.0780945l2.546875 0l0 9.6718445l-2.375 0zm9.474091 -9.6718445l0 2.0312195l-1.75 0l0 3.90625q0 1.1875 0.046875 1.390625q0.046875 0.1875 0.21875 0.3125q0.1875 0.125 0.4375 0.125q0.359375 0 1.03125 -0.25l0.21875 2.0q-0.890625 0.375 -2.015625 0.375q-0.703125 0 -1.265625 -0.234375q-0.546875 -0.234375 -0.8125 -0.59375q-0.25 -0.375 -0.34375 -1.0q-0.09375 -0.453125 -0.09375 -1.8125l0 -4.21875l-1.171875 0l0 -2.0312195l1.171875 0l0 -1.921875l2.578125 -1.5l0 3.421875l1.75 0zm0.868927 6.9062195l2.5625 -0.390625q0.171875 0.75 0.671875 1.140625q0.5 0.390625 1.40625 0.390625q0.984375 0 1.484375 -0.375q0.34375 -0.25 0.34375 -0.671875q0 -0.296875 -0.1875 -0.484375q-0.1875 -0.1875 -0.859375 -0.34375q-3.09375 -0.6875 -3.921875 -1.25q-1.140625 -0.78125 -1.140625 -2.171875q0 -1.265625 0.984375 -2.1093445q1.0 -0.859375 3.078125 -0.859375q1.984375 0 2.953125 0.65625q0.96875 0.6405945 1.328125 1.9062195l-2.40625 0.4375q-0.15625 -0.5625 -0.59375 -0.859375q-0.421875 -0.296875 -1.234375 -0.296875q-1.0 0 -1.4375 0.28125q-0.296875 0.203125 -0.296875 0.515625q0 0.265625 0.25 0.46875q0.34375 0.25 2.390625 0.71875q2.046875 0.453125 2.859375 1.140625q0.796875 0.671875 0.796875 1.890625q0 1.34375 -1.109375 2.296875q-1.109375 0.953125 -3.28125 0.953125q-1.984375 0 -3.140625 -0.796875q-1.140625 -0.8125 -1.5 -2.1875z" fill-rule="nonzero"/><path fill="#000000" fill-opacity="0.0" d="m98.215225 371.56168c0 39.275604 39.27559 58.91339 78.55118 78.55118c39.27559 19.637817 78.55118 39.275604 78.55118 78.55121" fill-rule="evenodd"/><path stroke="#000000" stroke-width="1.0" stroke-linejoin="round" stroke-linecap="butt" d="m98.215225 371.56168c0 39.275604 39.27559 58.91339 78.55118 78.55118c39.27559 19.637817 78.55118 39.275604 78.55118 78.55121" fill-rule="evenodd"/><path fill="#000000" fill-opacity="0.0" d="m589.94226 360.0c0 39.275604 39.275574 58.91339 78.55115 78.55118c39.275635 19.637787 78.55121 39.275604 78.55121 78.55118" fill-rule="evenodd"/><path stroke="#000000" stroke-width="1.0" stroke-linejoin="round" stroke-linecap="butt" d="m589.94226 360.0c0 39.275604 39.275574 58.91339 78.55115 78.55118c39.275635 19.637787 78.55121 39.275604 78.55121 78.55118" fill-rule="evenodd"/><path fill="#000000" fill-opacity="0.0" d="m517.12213 566.2889c-2.1819458 -4.9089966 -39.546356 -30.817566 -13.091858 -29.45404c26.454529 1.3634644 143.18243 31.36261 171.81891 37.63513" fill-rule="evenodd"/><path stroke="#000000" stroke-width="1.0" stroke-linejoin="round" stroke-linecap="butt" d="m517.12213 566.2889c-2.1819458 -4.9089966 -39.546356 -30.817566 -13.091858 -29.45404c26.454529 1.3634644 143.18243 31.36261 171.81891 37.63513" fill-rule="evenodd"/><path fill="#000000" fill-opacity="0.0" d="m513.8504 566.2887c-17.72705 -5.727478 -88.63519 -28.63733 -106.36221 -34.364807" fill-rule="evenodd"/><path stroke="#000000" stroke-width="1.0" stroke-linejoin="round" stroke-linecap="butt" d="m513.8504 566.2887c-17.72705 -5.727478 -88.63519 -28.63733 -106.36221 -34.364807" fill-rule="evenodd"/><path fill="#000000" fill-opacity="0.0" d="m814.1355 555.5116c32.724426 0 65.44885 -68.677185 65.44885 -137.35437" fill-rule="evenodd"/><path stroke="#000000" stroke-width="1.0" stroke-linejoin="round" stroke-linecap="butt" d="m814.1355 555.5116c32.724426 0 65.44885 -68.677185 65.44885 -137.35437" fill-rule="evenodd"/><path fill="#000000" fill-opacity="0.0" d="m630.042 314.9147c42.75061 0 64.1272 14.543304 85.50122 29.086609c21.373962 14.543304 42.745422 29.086609 85.490906 29.086609" fill-rule="evenodd"/><path stroke="#000000" stroke-width="1.0" stroke-linejoin="round" stroke-linecap="butt" d="m630.042 314.9147c42.75061 0 64.1272 14.543304 85.50122 29.086609c21.373962 14.543304 42.745422 29.086609 85.490906 29.086609" fill-rule="evenodd"/><path fill="#000000" fill-opacity="0.0" d="m455.95706 314.9197c-74.71655 0 -112.07483 2.8897705 -149.43307 5.779541c-37.358276 2.88974 -74.71654 5.7795105 -149.43307 5.7795105" fill-rule="evenodd"/><path stroke="#000000" stroke-width="1.0" stroke-linejoin="round" stroke-linecap="butt" d="m455.95706 314.9197c-74.71655 0 -112.07483 2.8897705 -149.43307 5.779541c-37.358276 2.88974 -74.71654 5.7795105 -149.43307 5.7795105" fill-rule="evenodd"/><path fill="#000000" fill-opacity="0.0" d="m281.03674 573.74805c11.685028 0 23.370087 -27.448853 23.370087 -54.897644" fill-rule="evenodd"/><path stroke="#000000" stroke-width="1.0" stroke-linejoin="round" stroke-linecap="butt" d="m281.03674 573.74805c11.685028 0 23.370087 -27.448853 23.370087 -54.897644" fill-rule="evenodd"/></g></svg>
